<svg width="375" height="52" viewBox="0 0 375 52" fill="none" xmlns="http://www.w3.org/2000/svg">
    <path fill="#F93F5B" d="M0 0h375v52H0z"/>
    <path d="M153.959 19.656h-2.128v10.576h2.128V19.656zm-9.968 4.672c0-1.216.864-1.92 1.952-1.92 1.104 0 1.936.704 1.936 1.92 0 1.184-.832 1.904-1.936 1.904-1.088 0-1.952-.72-1.952-1.904zm5.952 0c0-2.176-1.744-3.744-4-3.744-2.256 0-4.016 1.568-4.016 3.744 0 2.144 1.76 3.728 4.016 3.728 2.256 0 4-1.584 4-3.728zm-3.68 8.112v-3.248h-2.112v4.928h10.176v-1.68h-8.064zm11.455-6.56c2.784-.256 4.592-1.28 5.376-2.688.768 1.408 2.592 2.432 5.36 2.688l.736-1.648c-2.8-.24-4.24-1.216-4.576-2.224h3.936v-1.68h-10.896v1.68h3.92c-.336 1.008-1.776 1.984-4.56 2.224l.704 1.648zm5.344 6.88c-1.968 0-2.976-.352-2.976-1.12 0-.768 1.008-1.104 2.976-1.104s2.976.336 2.976 1.104-1.008 1.12-2.976 1.12zm0-3.856c-3.184 0-5.104 1.008-5.104 2.736 0 1.744 1.92 2.752 5.104 2.752s5.12-1.008 5.12-2.752c0-1.728-1.936-2.736-5.12-2.736zm-6.624-2.464v1.664h13.312V26.44h-13.312zm24.271-2.352h-5.84v-2.176h5.84v2.176zm2.08-3.824h-10v5.488h10v-5.488zm-7.984 9.584h-2.112v4.272h10.32v-1.68h-8.208v-2.592zm-3.664-2.928v1.664h5.808v2.512h2.112v-2.512h5.424V26.92h-13.344zm20.143-4.128h2.928v-1.744h-8.096v1.744h3.056v.816c0 2.432-1.2 5.2-3.616 6.32l1.184 1.68c1.68-.8 2.864-2.416 3.52-4.336.656 1.744 1.808 3.216 3.44 3.968l1.168-1.664c-2.416-1.12-3.584-3.728-3.584-5.968v-.816zm8.272 2.464h-2.144V19.64H195.3v14.736h2.112V27h2.144v-1.744zm13.207-4.528h-3.104v-1.216h-2.112v1.216h-3.136v1.504h8.352v-1.504zm-5.76 4.048c0-.544.608-.816 1.6-.816.992 0 1.584.272 1.584.816 0 .544-.592.832-1.584.832-.992 0-1.6-.288-1.6-.832zm6.144 2.608a47.46 47.46 0 0 1-3.488.272v-.752c1.568-.24 2.528-1.008 2.528-2.128 0-1.344-1.408-2.176-3.584-2.176s-3.6.832-3.6 2.176c0 1.12.976 1.888 2.544 2.128v.832c-1.248.032-2.448.032-3.504.032l.224 1.616c2.592 0 5.952-.032 9.04-.576l-.16-1.424zm-7.232 4.512h7.872v2.496h2.112v-4.128h-9.984v1.632zm11.84-8.032h-1.856V19.64h-2.112v10.048h2.112v-4.096h1.856v-1.728zm13.423-4.208h-2.128v10.576h2.128V19.656zm-9.968 4.672c0-1.216.864-1.92 1.952-1.92 1.104 0 1.936.704 1.936 1.92 0 1.184-.832 1.904-1.936 1.904-1.088 0-1.952-.72-1.952-1.904zm5.952 0c0-2.176-1.744-3.744-4-3.744-2.256 0-4.016 1.568-4.016 3.744 0 2.144 1.76 3.728 4.016 3.728 2.256 0 4-1.584 4-3.728zm-3.68 8.112v-3.248h-2.112v4.928h10.176v-1.68h-8.064z" fill="#fff"/>
</svg>
