<svg width="375" height="48" viewBox="0 0 375 48" fill="none" xmlns="http://www.w3.org/2000/svg">
<rect width="375" height="48" fill="#F93F5B"/>
<path d="M171.599 21.872C168.255 21.408 166.559 19.488 166.559 17.776V17.072H164.303V17.776C164.303 19.504 162.623 21.408 159.263 21.872L160.062 23.568C162.639 23.184 164.495 21.984 165.439 20.4C166.383 21.984 168.223 23.184 170.799 23.568L171.599 21.872ZM172.079 24.656H158.767V26.368H164.319V31.392H166.431V26.368H172.079V24.656ZM181.469 20.192V21.904H183.677V25.408H185.789V16.64H183.677V20.192H181.469ZM182.349 23.36C180.109 22.624 179.085 20.896 179.021 19.216H181.885V17.52H173.965V19.216H176.861C176.797 21.056 175.725 22.928 173.389 23.744L174.461 25.408C176.173 24.832 177.341 23.632 177.981 22.144C178.621 23.44 179.725 24.48 181.325 25.008L182.349 23.36ZM180.813 29.792C178.877 29.792 177.869 29.392 177.869 28.56C177.869 27.728 178.877 27.328 180.813 27.328C182.733 27.328 183.741 27.728 183.741 28.56C183.741 29.392 182.733 29.792 180.813 29.792ZM180.813 25.728C177.677 25.728 175.757 26.768 175.757 28.56C175.757 30.352 177.677 31.392 180.813 31.392C183.933 31.392 185.853 30.352 185.853 28.56C185.853 26.768 183.933 25.728 180.813 25.728ZM192.444 26.64C191.452 26.64 190.716 25.968 190.716 24.848C190.716 23.728 191.452 23.04 192.444 23.04C193.436 23.04 194.156 23.728 194.156 24.832C194.156 25.968 193.436 26.64 192.444 26.64ZM192.444 21.328C190.3 21.328 188.7 22.784 188.7 24.832C188.7 26.912 190.3 28.368 192.444 28.368C194.572 28.368 196.156 26.912 196.156 24.832C196.156 22.784 194.572 21.328 192.444 21.328ZM193.484 16.896H191.372V18.816H188.108V20.496H196.684V18.816H193.484V16.896ZM201.868 22.4H199.756V16.64H197.644V31.376H199.756V24.144H201.868V22.4ZM203.723 18.16V19.84H208.635C208.331 23.104 206.699 25.408 202.939 27.216L204.043 28.88C209.275 26.352 210.795 22.672 210.795 18.16H203.723ZM213.051 16.624V31.36H215.179V16.624H213.051Z" fill="white"/>
</svg>
