<svg width="375" height="48" viewBox="0 0 375 48" fill="none" xmlns="http://www.w3.org/2000/svg">
<rect width="375" height="48" fill="#D1D1D6"/>
<path d="M171.599 23.872C168.255 23.408 166.559 21.488 166.559 19.776V19.072H164.303V19.776C164.303 21.504 162.623 23.408 159.263 23.872L160.062 25.568C162.639 25.184 164.495 23.984 165.439 22.4C166.383 23.984 168.223 25.184 170.799 25.568L171.599 23.872ZM172.079 26.656H158.767V28.368H164.319V33.392H166.431V28.368H172.079V26.656ZM181.469 22.192V23.904H183.677V27.408H185.789V18.64H183.677V22.192H181.469ZM182.349 25.36C180.109 24.624 179.085 22.896 179.021 21.216H181.885V19.52H173.965V21.216H176.861C176.797 23.056 175.725 24.928 173.389 25.744L174.461 27.408C176.173 26.832 177.341 25.632 177.981 24.144C178.621 25.44 179.725 26.48 181.325 27.008L182.349 25.36ZM180.813 31.792C178.877 31.792 177.869 31.392 177.869 30.56C177.869 29.728 178.877 29.328 180.813 29.328C182.733 29.328 183.741 29.728 183.741 30.56C183.741 31.392 182.733 31.792 180.813 31.792ZM180.813 27.728C177.677 27.728 175.757 28.768 175.757 30.56C175.757 32.352 177.677 33.392 180.813 33.392C183.933 33.392 185.853 32.352 185.853 30.56C185.853 28.768 183.933 27.728 180.813 27.728ZM192.444 28.64C191.452 28.64 190.716 27.968 190.716 26.848C190.716 25.728 191.452 25.04 192.444 25.04C193.436 25.04 194.156 25.728 194.156 26.832C194.156 27.968 193.436 28.64 192.444 28.64ZM192.444 23.328C190.3 23.328 188.7 24.784 188.7 26.832C188.7 28.912 190.3 30.368 192.444 30.368C194.572 30.368 196.156 28.912 196.156 26.832C196.156 24.784 194.572 23.328 192.444 23.328ZM193.484 18.896H191.372V20.816H188.108V22.496H196.684V20.816H193.484V18.896ZM201.868 24.4H199.756V18.64H197.644V33.376H199.756V26.144H201.868V24.4ZM203.723 20.16V21.84H208.635C208.331 25.104 206.699 27.408 202.939 29.216L204.043 30.88C209.275 28.352 210.795 24.672 210.795 20.16H203.723ZM213.051 18.624V33.36H215.179V18.624H213.051Z" fill="white"/>
</svg>
