<svg width="88" height="40" viewBox="0 0 88 40" fill="none" xmlns="http://www.w3.org/2000/svg">
    <path fill="#283137" stroke="#283137" d="M.5.5h87v39H.5z"/>
    <path d="M42.77 19.098c-2.549-.364-4.453-1.946-4.453-3.584v-.672h-1.526v.672c0 1.666-1.876 3.22-4.452 3.584l.56 1.162c2.1-.336 3.85-1.386 4.662-2.856.826 1.456 2.548 2.52 4.648 2.856l.56-1.162zm.49 2.352H31.834v1.176h4.956v4.466h1.442v-4.466h5.026V21.45zm8.244-3.836v1.176h2.24v3.178h1.442v-7.532h-1.442v3.178h-2.24zm.728 2.814c-1.89-.658-2.968-2.226-2.968-3.808v-.168h2.632V15.29h-6.762v1.162h2.674v.182c0 1.736-1.134 3.416-3.094 4.116l.742 1.148c1.498-.532 2.562-1.652 3.122-3.038.532 1.218 1.54 2.212 2.94 2.702l.714-1.134zm-1.246 5.544c-1.806 0-2.828-.448-2.828-1.274 0-.826 1.022-1.274 2.828-1.274 1.778 0 2.814.448 2.814 1.274 0 .826-1.036 1.274-2.814 1.274zm0-3.668c-2.646 0-4.27.896-4.27 2.394 0 1.512 1.624 2.394 4.27 2.394 2.632 0 4.256-.882 4.256-2.394 0-1.498-1.624-2.394-4.256-2.394z" fill="#fff"/>
</svg>
