<svg width="375" height="86" viewBox="0 0 375 86" fill="none" xmlns="http://www.w3.org/2000/svg">
<rect width="375" height="86" fill="#F93F5B"/>
<path d="M171.599 26.872C168.255 26.408 166.559 24.488 166.559 22.776V22.072H164.303V22.776C164.303 24.504 162.623 26.408 159.263 26.872L160.062 28.568C162.639 28.184 164.495 26.984 165.439 25.4C166.383 26.984 168.223 28.184 170.799 28.568L171.599 26.872ZM172.079 29.656H158.767V31.368H164.319V36.392H166.431V31.368H172.079V29.656ZM181.469 25.192V26.904H183.677V30.408H185.789V21.64H183.677V25.192H181.469ZM182.349 28.36C180.109 27.624 179.085 25.896 179.021 24.216H181.885V22.52H173.965V24.216H176.861C176.797 26.056 175.725 27.928 173.389 28.744L174.461 30.408C176.173 29.832 177.341 28.632 177.981 27.144C178.621 28.44 179.725 29.48 181.325 30.008L182.349 28.36ZM180.813 34.792C178.877 34.792 177.869 34.392 177.869 33.56C177.869 32.728 178.877 32.328 180.813 32.328C182.733 32.328 183.741 32.728 183.741 33.56C183.741 34.392 182.733 34.792 180.813 34.792ZM180.813 30.728C177.677 30.728 175.757 31.768 175.757 33.56C175.757 35.352 177.677 36.392 180.813 36.392C183.933 36.392 185.853 35.352 185.853 33.56C185.853 31.768 183.933 30.728 180.813 30.728ZM190.876 25.224C190.876 24.328 191.564 23.816 192.572 23.816C193.58 23.816 194.3 24.328 194.3 25.224C194.3 26.12 193.58 26.632 192.572 26.632C191.564 26.632 190.876 26.12 190.876 25.224ZM196.988 28.872C195.932 29.032 194.78 29.112 193.644 29.176V28.12C195.212 27.768 196.252 26.664 196.252 25.224C196.252 23.464 194.716 22.232 192.572 22.232C190.444 22.232 188.908 23.464 188.908 25.224C188.908 26.68 189.964 27.784 191.532 28.12V29.256C190.316 29.288 189.148 29.288 188.14 29.288L188.396 30.968C190.828 30.968 194.14 30.92 197.116 30.36L196.988 28.872ZM192.172 31.928H190.06V36.12H200.364V34.44H192.172V31.928ZM199.868 26.264V21.64H197.756V32.888H199.868V28.008H201.724V26.264H199.868ZM208.363 30.792H210.939V33.032H208.363V30.792ZM213.019 33.032V30.792H215.083V29.096H206.539V27.48H214.747V22.584H204.427V24.264H212.667V25.832H204.443V30.792H206.283V33.032H202.891V34.76H216.251V33.032H213.019Z" fill="white"/>
</svg>
