<svg width="92" height="52" viewBox="0 0 92 52" fill="none" xmlns="http://www.w3.org/2000/svg">
    <path d="M0 0H84C88.4183 0 92 3.58172 92 8V44C92 48.4183 88.4183 52 84 52H0V0Z"
        fill="#D1D1D6" />
    <path
        d="M18.7726 18.492H17.6246V27.662H18.7726V18.492ZM9.88256 22.44C9.88256 21.222 10.8066 20.354 12.0246 20.354C13.2706 20.354 14.1946 21.222 14.1946 22.44C14.1946 23.686 13.2706 24.554 12.0246 24.554C10.8066 24.554 9.88256 23.686 9.88256 22.44ZM15.3146 22.44C15.3146 20.634 13.9006 19.36 12.0246 19.36C10.1626 19.36 8.76256 20.634 8.76256 22.44C8.76256 24.26 10.1626 25.548 12.0246 25.548C13.9006 25.548 15.3146 24.26 15.3146 22.44ZM11.8426 29.818V26.724H10.6946V30.756H19.1506V29.818H11.8426ZM22.3975 23.686C24.4555 23.434 26.3315 22.524 27.0315 21.152C27.7175 22.524 29.6075 23.434 31.6655 23.686L32.0715 22.776C29.8455 22.538 27.8295 21.446 27.7735 20.046H31.6795V19.122H22.3975V20.046H26.2895C26.2335 21.446 24.2175 22.538 21.9915 22.776L22.3975 23.686ZM27.0175 30.112C25.0435 30.112 23.8815 29.622 23.8815 28.74C23.8815 27.872 25.0435 27.368 27.0175 27.368C28.9775 27.368 30.1535 27.872 30.1535 28.74C30.1535 29.622 28.9775 30.112 27.0175 30.112ZM27.0175 26.472C24.3295 26.472 22.7195 27.284 22.7195 28.74C22.7195 30.21 24.3295 31.022 27.0175 31.022C29.6915 31.022 31.3155 30.21 31.3155 28.74C31.3155 27.284 29.6915 26.472 27.0175 26.472ZM21.3475 24.456V25.38H32.7015V24.456H21.3475ZM39.3784 24.708H35.9904V22.44H39.3784V24.708ZM40.5124 22.958H43.4104V27.774H44.5724V18.478H43.4104V22.02H40.5124V19.318H39.3784V21.53H35.9904V19.318H34.8564V25.632H40.5124V22.958ZM37.6424 29.818V26.864H36.4944V30.756H44.8664V29.818H37.6424ZM57.8573 20.312H53.3633V18.674H52.2153V20.312H47.6653V21.25H57.8573V20.312ZM49.8213 24.484C49.8213 23.56 50.9553 23 52.7893 23C54.5953 23 55.7153 23.56 55.7153 24.484C55.7153 25.422 54.5953 25.982 52.7893 25.982C50.9553 25.982 49.8213 25.422 49.8213 24.484ZM53.3633 28.628V26.864C55.5473 26.724 56.8773 25.884 56.8773 24.484C56.8773 22.972 55.2953 22.104 52.7893 22.104C50.2413 22.104 48.6593 22.972 48.6593 24.484C48.6593 25.884 50.0033 26.738 52.2153 26.864V28.628H47.1053V29.566H58.4873V28.628H53.3633ZM65.1922 24.106H61.6362V22.006H65.1922V24.106ZM66.3122 19.178H65.1922V21.096H61.6362V19.178H60.5022V25.03H66.3122V19.178ZM63.0362 27.438H69.8262V26.514H61.8882V30.854H70.0502V29.93H63.0362V27.438ZM69.7282 21.502V18.492H68.5802V25.828H69.7282V22.454H71.5902V21.502H69.7282ZM73.6051 19.836V20.76H78.3231C78.0851 23.742 76.4051 26.15 73.0311 27.76L73.6471 28.698C77.8191 26.654 79.4851 23.462 79.4851 19.836H73.6051ZM82.0191 18.478V31.036H83.1671V18.478H82.0191Z"
        fill="white" />
</svg>
