<svg width="92" height="52" viewBox="0 0 92 52" fill="none" xmlns="http://www.w3.org/2000/svg">
    <path d="M0 0h84a8 8 0 0 1 8 8v36a8 8 0 0 1-8 8H0V0z" fill="#283137"/>
    <path d="M22.276 25.602c2.058-.252 3.948-1.176 4.634-2.562.7 1.386 2.576 2.31 4.634 2.562l.406-.91c-2.198-.252-4.2-1.33-4.298-2.716h3.906v-.924h-9.282v.924h3.892c-.098 1.386-2.1 2.464-4.298 2.716l.406.91zm7.756 5.208c0 .84-1.176 1.33-3.136 1.33-1.974 0-3.136-.49-3.136-1.33 0-.84 1.162-1.316 3.136-1.316 1.96 0 3.136.476 3.136 1.316zm2.548-3.528v-.924H21.226v.924h5.096v1.344c-2.338.112-3.724.882-3.724 2.184 0 1.428 1.624 2.212 4.312 2.212 2.674 0 4.284-.784 4.284-2.212 0-1.302-1.372-2.072-3.71-2.184v-1.344h5.096zm2.785 2.758h7.546v2.996h1.148v-3.92h-8.694v.924zm1.372-6.944h6.104v1.456h-6.104v-1.456zm3.626 3.864v-1.498h3.612v-4.69h-1.134V22.2h-6.104v-1.428h-1.134v4.69h3.612v1.498h-5.124v.938H45.46v-.938h-5.096zm14.083-5.334h-3.024v-1.232h-1.148v1.232h-3.038v.868h7.21v-.868zM49 24.818c0-.658.714-1.064 1.848-1.064 1.106 0 1.834.406 1.834 1.064s-.728 1.078-1.834 1.078c-1.134 0-1.848-.42-1.848-1.078zm5.824 2.408c-1.092.168-2.254.252-3.402.308v-.868c1.442-.154 2.352-.826 2.352-1.848 0-1.148-1.176-1.862-2.926-1.862-1.778 0-2.94.714-2.94 1.862 0 1.036.91 1.708 2.366 1.848v.91c-1.204.042-2.352.042-3.346.042l.126.924c2.198-.014 5.166-.014 7.854-.49l-.084-.826zm-6.37 3.22h7.112v2.59h1.148v-3.5h-8.26v.91zm10.108-6.16h-1.848v-3.794h-1.148v8.414h1.148v-3.668h1.848v-.952zm11.605-3.794H69.02v9.17h1.148v-9.17zm-8.89 3.948c0-1.218.924-2.086 2.142-2.086 1.246 0 2.17.868 2.17 2.086 0 1.246-.924 2.114-2.17 2.114-1.218 0-2.142-.868-2.142-2.114zm5.432 0c0-1.806-1.414-3.08-3.29-3.08-1.862 0-3.262 1.274-3.262 3.08 0 1.82 1.4 3.108 3.262 3.108 1.876 0 3.29-1.288 3.29-3.108zm-3.472 7.378v-3.094H62.09v4.032h8.456v-.938h-7.308z" fill="#fff"/>
</svg>
