<svg width="375" height="52" viewBox="0 0 375 52" fill="none" xmlns="http://www.w3.org/2000/svg">
    <path fill="#D1D1D6" d="M0 0h375v52H0z"/>
    <path d="M182.013 20.728h-3.104v-1.216h-2.112v1.216h-3.136v1.504h8.352v-1.504zm-5.76 4.048c0-.544.608-.816 1.6-.816.992 0 1.584.272 1.584.816 0 .544-.592.832-1.584.832-.992 0-1.6-.288-1.6-.832zm6.144 2.608a47.46 47.46 0 0 1-3.488.272v-.752c1.568-.24 2.528-1.008 2.528-2.128 0-1.344-1.408-2.176-3.584-2.176s-3.6.832-3.6 2.176c0 1.12.976 1.888 2.544 2.128v.832c-1.248.032-2.448.032-3.504.032l.224 1.616c2.592 0 5.952-.032 9.04-.576l-.16-1.424zm-7.232 4.512h7.872v2.496h2.112v-4.128h-9.984v1.632zm11.84-8.032h-1.856V19.64h-2.112v10.048h2.112v-4.096h1.856v-1.728zm13.423-4.208H198.3v10.576h2.128V19.656zm-9.968 4.672c0-1.216.864-1.92 1.952-1.92 1.104 0 1.936.704 1.936 1.92 0 1.184-.832 1.904-1.936 1.904-1.088 0-1.952-.72-1.952-1.904zm5.952 0c0-2.176-1.744-3.744-4-3.744-2.256 0-4.016 1.568-4.016 3.744 0 2.144 1.76 3.728 4.016 3.728 2.256 0 4-1.584 4-3.728zm-3.68 8.112v-3.248h-2.112v4.928h10.176v-1.68h-8.064z" fill="#fff"/>
</svg>
