<svg width="375" height="48" viewBox="0 0 375 48" fill="none" xmlns="http://www.w3.org/2000/svg">
<rect width="375" height="48" fill="#F93F5B"/>
<path d="M171.599 23.9212C168.255 23.4572 166.559 21.5372 166.559 19.8252V19.1212H164.303V19.8252C164.303 21.5532 162.623 23.4572 159.263 23.9212L160.062 25.6172C162.639 25.2332 164.495 24.0332 165.439 22.4492C166.383 24.0332 168.223 25.2332 170.799 25.6172L171.599 23.9212ZM172.079 26.7052H158.767V28.4172H164.319V33.4412H166.431V28.4172H172.079V26.7052ZM181.469 22.2412V23.9532H183.677V27.4572H185.789V18.6892H183.677V22.2412H181.469ZM182.349 25.4092C180.109 24.6732 179.085 22.9452 179.021 21.2652H181.885V19.5692H173.965V21.2652H176.861C176.797 23.1052 175.725 24.9772 173.389 25.7932L174.461 27.4572C176.173 26.8812 177.341 25.6812 177.981 24.1932C178.621 25.4892 179.725 26.5292 181.325 27.0572L182.349 25.4092ZM180.813 31.8412C178.877 31.8412 177.869 31.4412 177.869 30.6092C177.869 29.7772 178.877 29.3772 180.813 29.3772C182.733 29.3772 183.741 29.7772 183.741 30.6092C183.741 31.4412 182.733 31.8412 180.813 31.8412ZM180.813 27.7772C177.677 27.7772 175.757 28.8172 175.757 30.6092C175.757 32.4012 177.677 33.4412 180.813 33.4412C183.933 33.4412 185.853 32.4012 185.853 30.6092C185.853 28.8172 183.933 27.7772 180.813 27.7772ZM190.876 22.2732C190.876 21.3772 191.564 20.8652 192.572 20.8652C193.58 20.8652 194.3 21.3772 194.3 22.2732C194.3 23.1692 193.58 23.6812 192.572 23.6812C191.564 23.6812 190.876 23.1692 190.876 22.2732ZM196.988 25.9212C195.932 26.0812 194.78 26.1612 193.644 26.2252V25.1692C195.212 24.8172 196.252 23.7132 196.252 22.2732C196.252 20.5132 194.716 19.2812 192.572 19.2812C190.444 19.2812 188.908 20.5132 188.908 22.2732C188.908 23.7292 189.964 24.8332 191.532 25.1692V26.3052C190.316 26.3372 189.148 26.3372 188.14 26.3372L188.396 28.0172C190.828 28.0172 194.14 27.9692 197.116 27.4092L196.988 25.9212ZM192.172 28.9772H190.06V33.1692H200.364V31.4892H192.172V28.9772ZM199.868 23.3132V18.6892H197.756V29.9372H199.868V25.0572H201.724V23.3132H199.868ZM208.363 27.8412H210.939V30.0812H208.363V27.8412ZM213.019 30.0812V27.8412H215.083V26.1452H206.539V24.5292H214.747V19.6332H204.427V21.3132H212.667V22.8812H204.443V27.8412H206.283V30.0812H202.891V31.8092H216.251V30.0812H213.019Z" fill="white"/>
</svg>
