<svg width="88" height="40" viewBox="0 0 88 40" fill="none" xmlns="http://www.w3.org/2000/svg">
    <path fill="#283137" stroke="#283137" d="M.5.5h87v39H.5z"/>
    <path d="M41.957 18.132h-7.266v-2.1h7.182V14.87h-8.61v4.424h8.694v-1.162zm-4.438 7.826c-1.848 0-2.884-.406-2.884-1.19 0-.77 1.036-1.19 2.884-1.19 1.848 0 2.898.42 2.898 1.19 0 .784-1.05 1.19-2.898 1.19zm0-3.486c-2.702 0-4.354.84-4.354 2.296 0 1.47 1.652 2.31 4.354 2.31 2.716 0 4.354-.84 4.354-2.31 0-1.456-1.638-2.296-4.354-2.296zm-5.67-2.128v1.19h11.424v-1.19H31.85zm14.139 4.144h7.364v2.52h1.442v-3.682h-8.806v1.162zm5.166-3.178v-1.148h3.822v-1.106h-7.392v-1.12h7.14V14.73h-8.582v1.106h7.154V16.9H46.17v3.262h3.542v1.148H44.7v1.162h11.466V21.31h-5.012z" fill="#fff"/>
</svg>
