<svg width="88" height="40" viewBox="0 0 88 40" fill="none" xmlns="http://www.w3.org/2000/svg">
    <path stroke="#D1D1D6" d="M.5.5h87v39H.5z"/>
    <path d="M39.241 20.232c-1.89-.63-2.968-2.156-2.968-3.78v-1.358h-1.456v1.232c0 1.792-1.078 3.416-3.066 4.088l.728 1.148c1.484-.504 2.52-1.554 3.08-2.884.532 1.232 1.554 2.212 2.954 2.674l.728-1.12zM33.39 23.83h6.874v3.248h1.442v-4.41H33.39v1.162zm10.108-6.16h-1.792v-3.22h-1.442v7.63h1.442v-3.22h1.792v-1.19zm5.053-.672h2.086v-1.19h-5.712v1.19h2.226v.91c0 2.254-.84 4.536-2.632 5.656l.868 1.064c1.218-.77 2.03-2.128 2.478-3.724.448 1.47 1.232 2.716 2.422 3.416l.84-1.05c-1.764-1.022-2.576-3.206-2.576-5.362v-.91zm3.024 1.876h-1.862v1.176h1.862v6.412h1.358V14.674h-1.358v4.2zm2.548-4.452v12.642h1.372V14.422h-1.372z" fill="#283137"/>
</svg>
