<svg width="88" height="40" viewBox="0 0 88 40" fill="none" xmlns="http://www.w3.org/2000/svg">
    <path stroke="#D1D1D6" d="M.5.5h87v39H.5z"/>
    <path d="M32.941 20.75c1.498-.336 2.548-1.092 3.094-2.1.56.91 1.582 1.61 3.024 1.918l.574-1.12c-1.82-.378-2.884-1.372-2.898-2.52h2.646v-1.134h-2.646v-1.33H35.28v1.33h-2.632v1.134h2.646c-.014 1.218-1.092 2.31-2.94 2.716l.588 1.106zm7.098.336c-2.716.378-5.852.406-8.204.406l.182 1.19c.994 0 2.1-.014 3.276-.056v4.088h1.442v-4.172a27.588 27.588 0 0 0 3.388-.392l-.084-1.064zm.812-6.65v12.656h1.442V14.436h-1.442zm14.825 5.978c-2.492-.42-4.522-2.296-4.522-4.256v-.952h-1.526v.952c0 1.946-2.03 3.836-4.536 4.256l.616 1.204c2.058-.406 3.85-1.666 4.69-3.346.812 1.68 2.604 2.94 4.676 3.346l.602-1.204zm-4.578 3.906v-2.954h-1.442v2.954h-4.942v1.19h11.452v-1.19h-5.068z" fill="#283137"/>
</svg>
