<svg width="20" height="20" viewBox="0 0 20 20" fill="none" xmlns="http://www.w3.org/2000/svg">
    <rect width="20" height="20" rx="10" fill="#000"/>
    <path fill-rule="evenodd" clip-rule="evenodd" d="M11.236 5.924c-.283.351-.757.615-1.135.615a.595.595 0 0 1-.112-.011.776.776 0 0 1-.016-.154c0-.45.219-.89.458-1.17.304-.368.81-.642 1.23-.659.012.05.017.11.017.17 0 .445-.187.89-.442 1.209zm-1.853 7.094c-.19.084-.37.164-.613.164-.522 0-.885-.494-1.3-1.098-.485-.714-.88-1.818-.88-2.86 0-1.68 1.06-2.57 2.105-2.57.305 0 .583.115.83.217.199.082.377.156.534.156.135 0 .304-.069.501-.149.275-.112.605-.246.974-.246.234 0 1.092.022 1.657.856a.403.403 0 0 1-.02.014c-.14.095-.88.6-.88 1.633 0 1.28 1.08 1.735 1.118 1.746a4.894 4.894 0 0 1-.575 1.224c-.357.528-.735 1.066-1.3 1.066-.278 0-.456-.081-.639-.165-.195-.089-.397-.181-.735-.181-.34 0-.565.1-.777.193z" fill="#fff"/>
</svg>
