<svg width="50" height="50" viewBox="0 0 50 50" fill="none" xmlns="http://www.w3.org/2000/svg">
    <circle cx="25" cy="25" r="25" fill="#F1F3F5"/>
    <path d="M34.695 20.458a.775.775 0 0 1-.62-.854c.235-1.934-2.367-2.78-3.313-1.076a.774.774 0 0 1-1.004.326c-1.767-.822-3.375 1.391-2.047 2.818a.775.775 0 0 1 0 1.055c-1.328 1.426.28 3.64 2.047 2.818a.775.775 0 0 1 1.004.326c.946 1.703 3.548.858 3.313-1.076a.775.775 0 0 1 .62-.854c1.912-.374 1.912-3.11 0-3.483zM15.305 23.943c.399.078.67.45.62.854-.235 1.934 2.367 2.78 3.313 1.076a.775.775 0 0 1 1.004-.326c1.767.822 3.375-1.392 2.047-2.818a.775.775 0 0 1 0-1.055c1.328-1.427-.28-3.64-2.047-2.819a.775.775 0 0 1-1.004-.326c-.946-1.703-3.548-.857-3.313 1.077a.775.775 0 0 1-.62.853c-1.912.374-1.912 3.11 0 3.484z" fill="#CFD6DC" stroke="#8E97A0" stroke-linejoin="round"/>
    <path d="m26.28 32.867 5.12-8.825L25 19l-6.4 5.042 5.12 8.825h2.56zM21.8 37.743l2.133-3.174L25 33.934l1.066.635 2.134 3.174c-.178.212-1.067 1.524-3.2 1.524-2.134 0-3.023-1.312-3.2-1.524z" fill="#fff" stroke="#8E97A0"/>
    <path d="M19.666 32.144a1 1 0 0 1 1.332-.944l2.367.833a1.448 1.448 0 0 1 0 2.732l-2.367.832a1 1 0 0 1-1.332-.943v-2.51zM30.334 34.654a1 1 0 0 1-1.332.944l-2.368-.833a1.448 1.448 0 0 1 0-2.732l2.368-.832a1 1 0 0 1 1.332.943v2.51z" fill="#CFD6DC" stroke="#8E97A0"/>
    <rect x="23.666" y="32.256" width="2.667" height="2.54" rx="1.27" fill="#CFD6DC" stroke="#8E97A0"/>
    <path d="M22.497 12.861a1.483 1.483 0 0 1-1.635 1.188c-2.705-.33-3.888 3.31-1.505 4.634.68.378.952 1.216.624 1.922-1.15 2.471 1.947 4.721 3.942 2.864.57-.53 1.451-.53 2.02 0 1.996 1.857 5.092-.393 3.943-2.864a1.483 1.483 0 0 1 .624-1.922c2.383-1.324 1.2-4.964-1.506-4.634a1.483 1.483 0 0 1-1.634-1.188c-.523-2.675-4.35-2.675-4.873 0z" fill="#CFD6DC" stroke="#8E97A0" stroke-linejoin="round"/>
    <circle cx="25" cy="17.932" r="2.7" fill="#fff" stroke="#8E97A0"/>
</svg>
