<svg width="50" height="50" viewBox="0 0 50 50" fill="none" xmlns="http://www.w3.org/2000/svg">
    <circle cx="25" cy="25" r="25" fill="#F1F3F5"/>
    <path d="M12.227 25.592s2.35-1.744 7.773-1.744c5.422 0 7.773 1.744 7.773 1.744 0 2.89-2.35 5.232-7.773 5.232-5.422 0-7.773-2.343-7.773-5.232z" fill="#CFD6DC" stroke="#8E97A0" stroke-linejoin="round"/>
    <path d="M28.5 25.155c0 .376-.173.774-.566 1.18-.396.407-.993.798-1.77 1.136-1.552.677-3.73 1.108-6.164 1.108-2.433 0-4.612-.43-6.164-1.108-.777-.338-1.374-.729-1.77-1.137-.393-.405-.566-.803-.566-1.179s.173-.773.566-1.179c.396-.408.993-.799 1.77-1.137 1.552-.677 3.73-1.108 6.164-1.108 2.433 0 4.612.431 6.164 1.108.777.338 1.374.729 1.77 1.137.393.406.566.803.566 1.18z" fill="#CFD6DC" stroke="#8E97A0"/>
    <path d="M27.375 23.411c0 .716-.636 1.517-2.02 2.168-1.344.633-3.237 1.038-5.355 1.038-2.118 0-4.01-.405-5.356-1.038-1.383-.65-2.019-1.452-2.019-2.168 0-.716.636-1.516 2.02-2.168 1.344-.633 3.237-1.038 5.355-1.038 2.118 0 4.01.405 5.356 1.038 1.383.652 2.019 1.452 2.019 2.168z" fill="#fff" stroke="#8E97A0"/>
    <path d="M28.5 20.158c0 .376-.173.774-.566 1.18-.396.408-.993.798-1.77 1.137-1.552.676-3.73 1.107-6.164 1.107-2.433 0-4.612-.43-6.164-1.107-.777-.34-1.374-.73-1.77-1.138-.393-.405-.566-.803-.566-1.179s.173-.773.566-1.179c.396-.408.993-.798 1.77-1.137 1.552-.677 3.73-1.108 6.164-1.108 2.433 0 4.612.431 6.164 1.108.777.339 1.374.729 1.77 1.137.393.406.566.803.566 1.18z" fill="#CFD6DC" stroke="#8E97A0"/>
    <path d="M27.875 19.632S25.494 21.176 20 21.176s-7.875-1.544-7.875-1.544C12.125 17.074 14.506 15 20 15s7.875 2.074 7.875 4.632zM22.227 32.592s2.35-1.744 7.773-1.744c5.422 0 7.773 1.744 7.773 1.744 0 2.89-2.35 5.232-7.773 5.232-5.422 0-7.773-2.343-7.773-5.232z" fill="#CFD6DC" stroke="#8E97A0" stroke-linejoin="round"/>
    <path d="M38.5 32.155c0 .376-.173.774-.566 1.18-.396.407-.993.798-1.77 1.136-1.552.677-3.73 1.108-6.164 1.108-2.433 0-4.612-.43-6.164-1.108-.777-.338-1.374-.729-1.77-1.137-.393-.405-.566-.803-.566-1.179s.173-.773.566-1.179c.396-.408.993-.799 1.77-1.137 1.552-.677 3.73-1.108 6.164-1.108 2.433 0 4.612.431 6.164 1.108.777.338 1.374.729 1.77 1.137.393.406.566.803.566 1.18z" fill="#CFD6DC" stroke="#8E97A0"/>
    <path d="M37.375 30.411c0 .716-.636 1.517-2.02 2.168-1.344.633-3.237 1.038-5.355 1.038-2.118 0-4.01-.405-5.356-1.038-1.383-.65-2.019-1.452-2.019-2.168 0-.716.636-1.516 2.02-2.168 1.344-.633 3.237-1.038 5.355-1.038 2.118 0 4.01.405 5.356 1.038 1.383.652 2.019 1.452 2.019 2.168z" fill="#fff" stroke="#8E97A0"/>
    <path d="M38.5 27.158c0 .376-.173.774-.566 1.18-.396.408-.993.798-1.77 1.137-1.552.676-3.73 1.107-6.164 1.107-2.433 0-4.612-.43-6.164-1.107-.777-.34-1.374-.73-1.77-1.138-.393-.405-.566-.803-.566-1.179s.173-.773.566-1.179c.396-.408.993-.798 1.77-1.137 1.552-.677 3.73-1.108 6.164-1.108 2.433 0 4.612.431 6.164 1.108.777.339 1.374.729 1.77 1.137.393.406.566.803.566 1.18z" fill="#CFD6DC" stroke="#8E97A0"/>
    <path d="M37.875 26.632S35.494 28.176 30 28.176s-7.875-1.544-7.875-1.544C22.125 24.074 24.506 22 30 22s7.875 2.074 7.875 4.632z" fill="#CFD6DC" stroke="#8E97A0" stroke-linejoin="round"/>
</svg>
