<svg width="50" height="50" viewBox="0 0 50 50" fill="none" xmlns="http://www.w3.org/2000/svg">
    <circle cx="25" cy="25" r="25" fill="#F1F3F5"/>
    <path d="M38.5 31.934c0 1.641-1.344 3.262-3.824 4.502-2.45 1.225-5.87 1.998-9.676 1.998-3.805 0-7.225-.773-9.676-1.998-2.48-1.24-3.824-2.86-3.824-4.502s1.344-3.263 3.824-4.503c2.45-1.225 5.87-1.997 9.676-1.997 3.805 0 7.225.772 9.676 1.997 2.48 1.24 3.824 2.861 3.824 4.503z" fill="#fff" stroke="#8E97A0"/>
    <mask id="a" fill="#fff">
        <path fill-rule="evenodd" clip-rule="evenodd" d="M36.2 23.066H13.8v8.398c0 2.784 5.014 5.04 11.2 5.04 6.184 0 11.197-2.255 11.2-5.038v-8.4z"/>
    </mask>
    <path fill-rule="evenodd" clip-rule="evenodd" d="M36.2 23.066H13.8v8.398c0 2.784 5.014 5.04 11.2 5.04 6.184 0 11.197-2.255 11.2-5.038v-8.4z" fill="#CFD6DC"/>
    <path d="M13.8 23.066v-1h-1v1h1zm22.4 0h1v-1h-1v1zm-22.4 8.376 1 .01v-.01h-1zm22.4.024v-1h-1v1h1zm0 0v1h1v-1h-1zm-22.4-7.4h22.4v-2H13.8v2zm1 7.376v-8.376h-2v8.376h2zm0 .022v-.012l-2-.02v.032h2zm10.2 4.04c-2.985 0-5.64-.546-7.51-1.388-1.964-.884-2.69-1.898-2.69-2.652h-2c0 2.03 1.78 3.536 3.87 4.476 2.183.983 5.129 1.564 8.33 1.564v-2zm10.2-4.038c-.001.753-.728 1.767-2.693 2.65-1.87.842-4.523 1.388-7.507 1.388v2c3.2 0 6.145-.581 8.328-1.563 2.09-.94 3.87-2.444 3.872-4.474l-2-.002zm1-1v2-2zm-1-7.4v8.4h2v-8.4h-2z" fill="#8E97A0" mask="url(#a)"/>
    <path d="M35.733 27.733c-.872 0-1.563.435-1.96.764-.264.218-.432.522-.548.845a2.924 2.924 0 0 1-3.002 1.927l-1.366-.117a2.802 2.802 0 0 0-2.048.652 2.802 2.802 0 0 1-3.618 0 2.802 2.802 0 0 0-2.049-.652l-1.306.112a3 3 0 0 1-3.082-1.978l-.129-.36a.888.888 0 0 0-.06-.139c-.135-.241-.71-1.054-2.299-1.054" stroke="#8E97A0"/>
    <path d="M35.7 23.067c0 1.255-1.03 2.526-3.004 3.512-1.944.972-4.664 1.588-7.696 1.588s-5.753-.616-7.696-1.588c-1.974-.986-3.004-2.257-3.004-3.512s1.03-2.526 3.004-3.513c1.943-.972 4.664-1.587 7.696-1.587s5.752.615 7.696 1.587c1.973.987 3.004 2.258 3.004 3.513z" fill="#fff" stroke="#8E97A0"/>
    <path d="M32.9 21.667c0 .868-.717 1.789-2.184 2.522-1.437.719-3.457 1.178-5.716 1.178-2.259 0-4.279-.459-5.716-1.178-1.467-.733-2.184-1.654-2.184-2.522 0-.869.717-1.79 2.184-2.523 1.437-.718 3.457-1.177 5.716-1.177 2.259 0 4.28.459 5.716 1.177 1.467.734 2.184 1.655 2.184 2.523z" fill="#CFD6DC" stroke="#8E97A0"/>
    <path d="M26.367 17.466v3.733a1.367 1.367 0 1 1-2.734 0v-3.733a1.367 1.367 0 0 1 2.734 0z" fill="#fff" stroke="#8E97A0"/>
    <path d="M25 14.667c-1.089-.623-2.613-2.427 0-4.667 1.089.933 2.613 3.173 0 4.667z" fill="#CFD6DC" stroke="#8E97A0"/>
</svg>
