<svg width="45" height="44" viewBox="0 0 45 44" fill="none" xmlns="http://www.w3.org/2000/svg">
    <rect x=".5" width="44" height="44" rx="22" fill="#000"/>
    <path fill-rule="evenodd" clip-rule="evenodd" d="M25.219 13.032c-.621.773-1.664 1.353-2.496 1.353-.094 0-.188-.012-.246-.024a1.699 1.699 0 0 1-.036-.339c0-.99.48-1.956 1.008-2.572.668-.81 1.781-1.414 2.707-1.45.024.109.035.242.035.374 0 .979-.41 1.957-.972 2.658zM21.143 28.64c-.417.185-.813.36-1.35.36-1.148 0-1.945-1.087-2.86-2.416C15.868 25.014 15 22.586 15 20.291c0-3.696 2.332-5.653 4.629-5.653.67 0 1.283.254 1.827.479.436.18.829.343 1.173.343.298 0 .67-.152 1.103-.328.605-.247 1.33-.542 2.143-.542.516 0 2.402.048 3.645 1.884l-.045.031c-.306.208-1.936 1.318-1.936 3.593 0 2.814 2.379 3.817 2.461 3.841l-.015.046c-.078.249-.45 1.438-1.25 2.648-.786 1.16-1.618 2.343-2.86 2.343-.612 0-1.002-.178-1.405-.362-.43-.196-.874-.4-1.618-.4-.749 0-1.242.22-1.709.426z" fill="#fff"/>
</svg>
