<svg width="30" height="30" viewBox="0 0 30 30" fill="none" xmlns="http://www.w3.org/2000/svg">
    <rect x="5.75" y="5.75" width="18.5" height="18.5" rx="9.25" stroke="#283137" stroke-width="1.5"/>
    <path d="M14.973 11c.473 0 .894.065 1.264.194.369.13.68.33.933.603.252.272.443.622.573 1.05.136.42.204.926.204 1.515v.399c0 .537-.055 1.004-.165 1.399-.11.395-.27.729-.477 1l.564.555c.104.103.146.216.126.34a.61.61 0 0 1-.184.33.59.59 0 0 1-.33.175c-.117.02-.227-.023-.331-.127l-.632-.621c-.427.207-.942.31-1.545.31-.473 0-.894-.064-1.263-.194-.37-.13-.68-.33-.933-.602a2.741 2.741 0 0 1-.583-1.04c-.13-.428-.194-.936-.194-1.526v-.398c0-.59.065-1.095.194-1.516.136-.427.33-.777.583-1.05a2.28 2.28 0 0 1 .933-.602c.37-.13.79-.194 1.263-.194zm0 1.137c-.285 0-.534.039-.748.117a1.244 1.244 0 0 0-.544.388c-.142.175-.25.412-.32.71a4.853 4.853 0 0 0-.107 1.107v.204c0 .44.035.81.106 1.108.072.298.179.538.321.72.149.174.33.3.544.378.214.078.463.117.748.117.247 0 .457-.026.632-.078l-.573-.573c-.104-.104-.146-.214-.127-.33a.59.59 0 0 1 .175-.331.61.61 0 0 1 .33-.185c.124-.02.237.023.34.127l.652.65a2.33 2.33 0 0 0 .214-.67c.051-.259.077-.57.077-.933v-.204c0-.44-.035-.81-.107-1.107-.07-.299-.181-.535-.33-.71a1.181 1.181 0 0 0-.534-.388 2.188 2.188 0 0 0-.749-.117z" fill="#283137"/>
</svg>
