<svg width="30" height="30" viewBox="0 0 30 30" fill="none" xmlns="http://www.w3.org/2000/svg">
    <circle cx="15" cy="15" r="9.25" stroke="#283137" stroke-width="1.5"/>
    <path d="M14.049 10.927c.3-.921 1.603-.921 1.902 0l.396 1.219a1 1 0 0 0 .951.69h1.282c.968 0 1.371 1.24.588 1.81l-1.037.753a1 1 0 0 0-.364 1.118l.396 1.22c.3.92-.755 1.687-1.538 1.117l-1.037-.753a1 1 0 0 0-1.176 0l-1.037.753c-.783.57-1.838-.197-1.538-1.118l.396-1.219a1 1 0 0 0-.364-1.118l-1.037-.753c-.783-.57-.38-1.81.588-1.81h1.282a1 1 0 0 0 .95-.69l.397-1.219z" stroke="#283137" stroke-width="1.5"/>
</svg>
