<svg width="30" height="30" viewBox="0 0 30 30" fill="none" xmlns="http://www.w3.org/2000/svg">
    <path d="M14.467 8H9a1 1 0 0 0-1 1v12a1 1 0 0 0 1 1h12a1 1 0 0 0 1-1v-4.226" stroke="#283137" stroke-width="1.5" stroke-linecap="round" stroke-linejoin="round"/>
    <path d="m21.566 6.813 2.121 2.121a.25.25 0 0 1 0 .354l-7.034 7.033a.25.25 0 0 1-.127.069l-2.652.53a.25.25 0 0 1-.294-.294l.53-2.652a.25.25 0 0 1 .069-.127l7.033-7.034a.25.25 0 0 1 .354 0z" stroke="#283137" stroke-width="1.5"/>
</svg>
