<svg width="30" height="30" viewBox="0 0 30 30" fill="none" xmlns="http://www.w3.org/2000/svg">
    <rect x="2.75" y="7.75" width="24.5" height="14.5" rx="7.25" stroke="#283137" stroke-width="1.5"/>
    <path d="M11.411 12.088c.123 0 .214.043.273.129a.525.525 0 0 1 .088.305c0 .117-.03.22-.088.305-.059.085-.15.128-.273.128H9.027v1.613h2.216c.123 0 .213.043.272.129a.526.526 0 0 1 .089.305c0 .117-.03.22-.089.305-.059.085-.15.128-.273.128H9.027v1.966c0 .156-.05.268-.152.338a.624.624 0 0 1-.361.104.624.624 0 0 1-.362-.104C8.051 17.669 8 17.557 8 17.4v-4.647c0-.251.048-.425.144-.521.102-.097.281-.145.538-.145h2.729zM14.212 12.04c.14 0 .26.032.361.096.102.065.19.19.265.378l1.806 4.655c.059.155.059.289 0 .401a.472.472 0 0 1-.289.233.732.732 0 0 1-.401.016c-.129-.032-.222-.134-.281-.305l-.466-1.284h-2.022l-.474 1.316c-.059.155-.15.249-.273.28a.676.676 0 0 1-.369-.023.487.487 0 0 1-.28-.217c-.06-.102-.06-.227 0-.377l1.805-4.695c.07-.188.155-.313.257-.378a.689.689 0 0 1 .361-.096zm-.016 1.284a7.37 7.37 0 0 1-.128.434c-.038.123-.088.275-.153.457l-.425 1.164h1.412l-.417-1.164a11.29 11.29 0 0 1-.168-.481c-.038-.134-.078-.27-.12-.41zM19.5 12c.39 0 .738.053 1.044.16.305.107.561.273.77.498.209.225.366.514.474.867.112.348.168.765.168 1.252v.329c0 .444-.045.83-.136 1.156-.091.326-.222.602-.394.826l.466.458c.085.085.12.18.104.28a.505.505 0 0 1-.152.274.488.488 0 0 1-.273.144c-.097.016-.187-.018-.273-.104l-.522-.514c-.353.171-.778.257-1.276.257-.39 0-.738-.053-1.043-.16a1.883 1.883 0 0 1-.77-.498 2.263 2.263 0 0 1-.482-.859c-.107-.353-.16-.773-.16-1.26v-.329c0-.487.053-.904.16-1.252a2.26 2.26 0 0 1 .481-.867c.209-.225.466-.39.77-.497.306-.107.654-.161 1.044-.161zm0 .939c-.235 0-.441.032-.618.096a1.029 1.029 0 0 0-.45.321c-.117.145-.205.34-.264.586a4.012 4.012 0 0 0-.088.915v.169c0 .364.029.669.088.915s.147.444.265.594c.123.144.273.248.45.313.176.064.382.096.617.096.203 0 .377-.021.522-.064l-.474-.474c-.085-.085-.12-.176-.104-.273a.489.489 0 0 1 .144-.272.504.504 0 0 1 .273-.153c.102-.016.196.019.281.104l.538.538c.08-.155.14-.34.177-.554.042-.214.064-.47.064-.77v-.169c0-.364-.03-.669-.089-.915a1.389 1.389 0 0 0-.272-.586.977.977 0 0 0-.442-.32 1.806 1.806 0 0 0-.618-.097z" fill="#283137"/>
</svg>
