<svg width="30" height="30" viewBox="0 0 30 30" fill="none" xmlns="http://www.w3.org/2000/svg">
    <path d="M8.524 12.463a.5.5 0 0 1 .952 0l.31.955a.5.5 0 0 0 .475.346h1.004a.5.5 0 0 1 .294.904l-.812.59a.5.5 0 0 0-.182.56l.31.955a.5.5 0 0 1-.769.559l-.812-.59a.5.5 0 0 0-.588 0l-.812.59a.5.5 0 0 1-.77-.56l.31-.954a.5.5 0 0 0-.181-.56l-.812-.59a.5.5 0 0 1 .294-.904h1.004a.5.5 0 0 0 .475-.346l.31-.954zM14.524 12.463a.5.5 0 0 1 .952 0l.31.955a.5.5 0 0 0 .475.346h1.004a.5.5 0 0 1 .294.904l-.812.59a.5.5 0 0 0-.182.56l.31.955a.5.5 0 0 1-.769.559l-.812-.59a.5.5 0 0 0-.588 0l-.812.59a.5.5 0 0 1-.77-.56l.31-.954a.5.5 0 0 0-.181-.56l-.812-.59a.5.5 0 0 1 .294-.904h1.004a.5.5 0 0 0 .475-.346l.31-.954zM20.524 12.463a.5.5 0 0 1 .951 0l.31.955a.5.5 0 0 0 .476.346h1.004a.5.5 0 0 1 .294.904l-.812.59a.5.5 0 0 0-.182.56l.31.955a.5.5 0 0 1-.769.559l-.812-.59a.5.5 0 0 0-.588 0l-.812.59a.5.5 0 0 1-.77-.56l.31-.954a.5.5 0 0 0-.181-.56l-.812-.59a.5.5 0 0 1 .294-.904h1.004a.5.5 0 0 0 .475-.346l.31-.954z" fill="#283137"/>
    <mask id="a" fill="#fff">
        <path fill-rule="evenodd" clip-rule="evenodd" d="M10 7a8 8 0 1 0 0 16h2.086a1 1 0 0 1 .707.293l1.5 1.5a1 1 0 0 0 1.414 0l1.5-1.5a1 1 0 0 1 .707-.293H20a8 8 0 1 0 0-16H10z"/>
    </mask>
    <path d="m14.293 24.793-1.06 1.06 1.06-1.06zm1.414 0 1.06 1.06-1.06-1.06zM3.5 15A6.5 6.5 0 0 1 10 8.5v-3A9.5 9.5 0 0 0 .5 15h3zm6.5 6.5A6.5 6.5 0 0 1 3.5 15h-3a9.5 9.5 0 0 0 9.5 9.5v-3zm2.086 0H10v3h2.086v-3zm3.268 2.232-1.5-1.5-2.122 2.122 1.5 1.5 2.122-2.122zm.792-1.5-1.5 1.5 2.122 2.122 1.5-1.5-2.122-2.122zM20 21.5h-2.086v3H20v-3zm6.5-6.5a6.5 6.5 0 0 1-6.5 6.5v3a9.5 9.5 0 0 0 9.5-9.5h-3zM20 8.5a6.5 6.5 0 0 1 6.5 6.5h3A9.5 9.5 0 0 0 20 5.5v3zm-10 0h10v-3H10v3zm8.268 15.854a.5.5 0 0 1-.354.146v-3a2.5 2.5 0 0 0-1.768.732l2.122 2.122zm-5.036 1.5a2.5 2.5 0 0 0 3.536 0l-2.122-2.122a.5.5 0 0 1 .708 0l-2.122 2.122zM12.086 24.5a.5.5 0 0 1-.354-.146l2.122-2.122a2.5 2.5 0 0 0-1.768-.732v3z" fill="#283137" mask="url(#a)"/>
</svg>
