<svg width="38" height="20" viewBox="0 0 38 20" fill="none" xmlns="http://www.w3.org/2000/svg">
    <rect width="38" height="20" rx="10" fill="#283137" fill-opacity=".5"/>
    <path d="M8.146 14h1.21v-3.817c0-.88-.1-1.815-.165-2.651h.055l.846 1.694L12.776 14h1.31V5.904h-1.21v3.773c0 .88.099 1.859.165 2.695h-.056l-.846-1.716-2.684-4.752h-1.31V14zm7.748 0H20.8v-1.078h-3.63v-2.618h2.97V9.226h-2.97V6.971h3.509V5.904h-4.785V14zm7.101 0h1.54l1.067-4.499c.132-.638.264-1.243.374-1.859h.055c.11.616.231 1.221.374 1.859L27.495 14h1.572l1.595-8.096h-1.22l-.77 4.213c-.133.847-.276 1.716-.408 2.596h-.055c-.187-.88-.363-1.749-.55-2.596l-1.056-4.213h-1.122l-1.045 4.213a179.99 179.99 0 0 0-.55 2.596h-.044l-.429-2.596-.759-4.213h-1.32L22.995 14z" fill="#fff"/>
</svg>
