<svg width="10" height="10" viewBox="0 0 10 10" fill="none" xmlns="http://www.w3.org/2000/svg">
    <path fill-rule="evenodd" clip-rule="evenodd" d="M5.447 8.735a.874.874 0 0 0-.894 0l-1.655.986a.874.874 0 0 1-1.3-.945l.427-1.878a.874.874 0 0 0-.277-.85L.3 4.777A.874.874 0 0 1 .796 3.25l1.918-.174a.874.874 0 0 0 .724-.526L4.197.78a.874.874 0 0 1 1.606 0l.76 1.77a.874.874 0 0 0 .723.526l1.918.174a.874.874 0 0 1 .497 1.528l-1.45 1.27a.874.874 0 0 0-.276.85l.427 1.878a.874.874 0 0 1-1.3.945l-1.655-.986z" fill="#F93F5B"/>
</svg>
