<svg width="40" height="40" viewBox="0 0 40 40" fill="none" xmlns="http://www.w3.org/2000/svg">
    <path fill-rule="evenodd" clip-rule="evenodd" d="M21.006 31.947a1.998 1.998 0 0 0-2.012 0l-7.915 4.61c-1.514.882-3.349-.473-2.952-2.18l2.008-8.643a1.998 1.998 0 0 0-.647-1.97l-6.786-5.808c-1.345-1.15-.64-3.352 1.122-3.509l9.071-.808a1.998 1.998 0 0 0 1.653-1.188l3.622-8.255c.7-1.594 2.96-1.594 3.66 0l3.622 8.256a1.998 1.998 0 0 0 1.653 1.187l9.071.808c1.763.157 2.467 2.358 1.122 3.509l-6.786 5.807a1.998 1.998 0 0 0-.647 1.97l2.008 8.645c.397 1.706-1.438 3.06-2.952 2.179l-7.915-4.61z" fill="#F93F5B"/>
</svg>
