<svg width="30" height="30" viewBox="0 0 30 30" fill="none" xmlns="http://www.w3.org/2000/svg">
    <path d="m13.222 13.35 3.852-2.1M12.926 16.65l3.852 2.4M22.25 9.6c0 1.583-1.265 2.85-2.805 2.85-1.541 0-2.806-1.267-2.806-2.85 0-1.583 1.265-2.85 2.806-2.85 1.54 0 2.805 1.267 2.805 2.85zM22.25 20.4c0 1.583-1.265 2.85-2.806 2.85-1.54 0-2.805-1.267-2.805-2.85 0-1.583 1.265-2.85 2.805-2.85 1.541 0 2.806 1.267 2.806 2.85zM13.361 15c0 1.583-1.265 2.85-2.805 2.85-1.541 0-2.806-1.267-2.806-2.85 0-1.583 1.265-2.85 2.806-2.85 1.54 0 2.805 1.267 2.805 2.85z" stroke="#fff" stroke-width="1.5"/>
</svg>
