<svg width="30" height="30" viewBox="0 0 30 30" fill="none" xmlns="http://www.w3.org/2000/svg">
    <circle cx="15" cy="15" r="15" fill="#000" fill-opacity=".5"/>
    <path d="m7.83 15 4.31-3.842-5.482-1.811L7.83 15zm13.84 0A6.67 6.67 0 0 1 15 21.67v1A7.67 7.67 0 0 0 22.67 15h-1zM9.642 11.025A6.66 6.66 0 0 1 15 8.331v-1a7.659 7.659 0 0 0-6.16 3.098l.803.596zM15 8.331A6.67 6.67 0 0 1 21.67 15h1A7.67 7.67 0 0 0 15 7.33v1z" fill="#fff"/>
    <path d="M9.163 19.163a7.17 7.17 0 1 0 1.673-10" stroke="#fff"/>
</svg>
