<svg width="30" height="30" viewBox="0 0 30 30" fill="none" xmlns="http://www.w3.org/2000/svg">
    <circle cx="15" cy="15" r="14.25" fill="#fff" stroke="#F1F3F5" stroke-width="1.5"/>
    <mask id="a" fill="#fff">
        <path fill-rule="evenodd" clip-rule="evenodd" d="M18.732 9H21a2 2 0 0 1 2 2v8a2 2 0 0 1-2 2H9a2 2 0 0 1-2-2v-8a2 2 0 0 1 2-2h2.268A2 2 0 0 1 13 8h4a2 2 0 0 1 1.732 1z"/>
    </mask>
    <path d="m18.732 9-1.298.751.433.749h.865V9zm-7.464 0v1.5h.865l.433-.749L11.268 9zm7.464 1.5H21v-3h-2.268v3zm2.268 0a.5.5 0 0 1 .5.5h3A3.5 3.5 0 0 0 21 7.5v3zm.5.5v8h3v-8h-3zm0 8a.5.5 0 0 1-.5.5v3a3.5 3.5 0 0 0 3.5-3.5h-3zm-.5.5H9v3h12v-3zm-12 0a.5.5 0 0 1-.5-.5h-3A3.5 3.5 0 0 0 9 22.5v-3zm-.5-.5v-8h-3v8h3zm0-8a.5.5 0 0 1 .5-.5v-3A3.5 3.5 0 0 0 5.5 11h3zm.5-.5h2.268v-3H9v3zm3.566-.749A.5.5 0 0 1 13 9.5v-3a3.5 3.5 0 0 0-3.03 1.749l2.596 1.502zM13 9.5h4v-3h-4v3zm4 0a.5.5 0 0 1 .434.251l2.597-1.502A3.5 3.5 0 0 0 17 6.5v3z" fill="#283137" mask="url(#a)"/>
    <rect x="12.75" y="12.75" width="4.5" height="4.5" rx="2.25" stroke="#283137" stroke-width="1.5"/>
</svg>
