<svg width="30" height="30" viewBox="0 0 30 30" fill="none" xmlns="http://www.w3.org/2000/svg">
    <path fill-rule="evenodd" clip-rule="evenodd" d="M5.5 13 15 4l9.5 9H21v9h-4.364v-5.063h-3.272V22H9v-9H5.5z" fill="#283137"/>
    <path d="m15 4 .516-.544a.75.75 0 0 0-1.032 0L15 4zm-9.5 9-.516-.544A.75.75 0 0 0 5.5 13.75V13zm19 0v.75a.75.75 0 0 0 .516-1.294L24.5 13zM21 13v-.75a.75.75 0 0 0-.75.75H21zm0 9v.75a.75.75 0 0 0 .75-.75H21zm-4.364 0h-.75c0 .414.336.75.75.75V22zm0-5.063h.75a.75.75 0 0 0-.75-.75v.75zm-3.272 0v-.75a.75.75 0 0 0-.75.75h.75zm0 5.063v.75a.75.75 0 0 0 .75-.75h-.75zM9 22h-.75c0 .414.336.75.75.75V22zm0-9h.75a.75.75 0 0 0-.75-.75V13zm5.484-9.544-9.5 9 1.032 1.088 9.5-9-1.032-1.088zm10.532 9-9.5-9-1.032 1.088 9.5 9 1.032-1.088zM21 13.75h3.5v-1.5H21v1.5zm.75 8.25v-9h-1.5v9h1.5zm-5.114.75H21v-1.5h-4.364v1.5zm-.75-5.813V22h1.5v-5.063h-1.5zm-2.522.75h3.272v-1.5h-3.272v1.5zm.75 4.313v-5.063h-1.5V22h1.5zM9 22.75h4.364v-1.5H9v1.5zM8.25 13v9h1.5v-9h-1.5zm-2.75.75H9v-1.5H5.5v1.5z" fill="#283137"/>
</svg>
