<svg width="375" height="100" viewBox="0 0 375 100" fill="none" xmlns="http://www.w3.org/2000/svg">
    <path fill="#0E453E" d="M0 0h375v100H0z"/>
    <path d="M116.408 69.512c-.168.012-.552.024-1.056.036.552-1.944 1.008-4.632 1.08-6.408l.156-.396c.024-.06.024-.108-.012-.144a3.778 3.778 0 0 0-.54-.324.264.264 0 0 0-.192 0l-.42.204c-.888.036-4.488.096-5.112.096-.324 0-.816-.036-1.176-.096l-.084.156c-.012.036 0 .084.048.12a3.63 3.63 0 0 0 1.044.564c.228-.084.696-.18.936-.192.564-.048 3.336-.096 4.344-.084 0 .732-.048 1.596-.12 2.508-1.32.192-4.032.384-5.46.408-.384 0-.816-.024-1.188-.096l-.084.168c-.024.036-.012.072.036.12.288.228.684.444 1.08.588.204-.072.612-.156.864-.168 1.32-.06 3.492-.3 4.704-.516a31.608 31.608 0 0 1-.492 3.504c-2.124.036-5.508.084-6.036.072-.372-.012-.936-.06-1.332-.132l-.084.168c-.012.048 0 .084.036.108a3.8 3.8 0 0 0 1.176.636c.288-.096.9-.204 1.2-.228.636-.048 6.132-.108 6.972-.096.36 0 1.068.024 1.392.06a.552.552 0 0 0 .252-.444.208.208 0 0 0-.156-.204c-.276-.096-.912-.168-1.344-.18l-.432.192zm9.394-8.4c.432.144.816.36 1.032.612v6.012c-1.656.456-4.26.768-5.796.78-.168 0-.216-.06-.216-.216v-2.34l3.696-.108a.567.567 0 0 0 .108-.312c0-.06-.024-.096-.06-.12l-.24-.12c.108-.516.252-1.56.264-2.148l.132-.324c.024-.06.024-.12-.024-.156a3.606 3.606 0 0 0-.48-.276.206.206 0 0 0-.204 0l-.336.18c-.588.036-2.796.096-3.264.084-.288 0-.732-.024-1.032-.096l-.084.156c-.012.036-.012.072.036.12.252.18.576.384.924.516.276-.084.684-.168.9-.18.336-.036 1.932-.072 2.472-.072.024.444.012 1.716-.036 2.184l-.204.072c-.36.024-1.884.06-2.556.072-.336-.036-1.104-.048-1.44-.048-.072 0-.12.024-.132.06l-.036.24c.276.06.54.168.708.312v2.124c0 .228.024.432.06.54.12.36.384.6.78.6.108 0 .252 0 .396-.012 1.596-.108 3.936-.492 5.664-1.032v1.872c0 .528.024 1.704.06 2.208h.504c.168-.684.288-1.812.288-2.508v-7.836l.024-.636c0-.12-.036-.204-.144-.24-.348-.144-1.092-.3-1.536-.312-.096 0-.12.024-.132.06l-.096.288zm4.414 6.552c.024.024.048.024.108 0 1.8-.756 3.336-1.848 4.38-3.072l3.972 2.364c.12.06.264.132.348.132.144.012.312-.132.324-.288.012-.084-.048-.204-.18-.336-.18-.204-.588-.54-.888-.756l-.768-.18-2.448-1.38c.3-.396.54-.804.732-1.224a.667.667 0 0 0 .06-.276c0-.108-.06-.18-.156-.252-.264-.168-.924-.408-1.392-.504-.072-.012-.108 0-.144.048l-.168.264c.3.156.6.42.72.636-.732 1.596-2.436 3.324-4.608 4.56-.036.024-.048.06-.024.096l.132.168zm8.172 1.896c-.84.048-6.948.132-7.68.12-.372 0-.936-.048-1.332-.12l-.084.168c-.012.036 0 .072.036.108.3.24.744.492 1.176.624.288-.096.9-.204 1.2-.228.636-.036 6.132-.108 6.972-.096.36 0 1.068.024 1.392.06a.552.552 0 0 0 .252-.444c0-.096-.072-.168-.156-.204-.276-.084-.912-.156-1.344-.168l-.432.18zm11.494-3.768-.852.036v-3.876l.036-.636c0-.12-.036-.204-.144-.24-.348-.144-1.104-.3-1.536-.312-.096 0-.12.024-.132.06l-.096.288c.432.144.816.36 1.02.612v8.364c0 .528.036 1.704.072 2.208h.504c.168-.684.276-1.812.276-2.508v-3.444l2.088-.036c.084 0 .18-.012.228-.06.084-.048.156-.216.144-.42a.217.217 0 0 0-.168-.204c-.216-.048-.708-.072-1.056-.06l-.384.228zm-4.584-2.628c-.768.048-2.364.072-3.156.06-.348-.06-1.044-.12-1.404-.12-.072 0-.108.024-.12.06l-.06.264c.252.072.504.216.636.36l.252 4.296c.012.24.06.54.108.756h.48c.072-.168.132-.348.168-.552l4.008-.048a.576.576 0 0 0 .132-.384c0-.048-.036-.096-.084-.12l-.24-.096c.144-1.212.252-2.676.288-3.864l.144-.396c.024-.072.012-.108-.024-.144a3.762 3.762 0 0 0-.528-.3.264.264 0 0 0-.192 0l-.408.228zm-3.168.588c1.008-.024 2.22-.048 3.228-.048l-.036 3.948-.228.06c-.66.036-2.052.06-2.88.048l-.084-4.008zm10.065 3.912c.024.024.048.024.108 0 1.8-.756 3.336-1.848 4.38-3.072l3.972 2.364c.12.06.264.132.348.132.144.012.312-.132.324-.288.012-.084-.048-.204-.18-.336-.18-.204-.588-.54-.888-.756l-.768-.18-2.448-1.38c.3-.396.54-.804.732-1.224a.667.667 0 0 0 .06-.276c0-.108-.06-.18-.156-.252-.264-.168-.924-.408-1.392-.504-.072-.012-.108 0-.144.048l-.168.264c.3.156.6.42.72.636-.732 1.596-2.436 3.324-4.608 4.56-.036.024-.048.06-.024.096l.132.168zm8.172 1.896c-.84.048-6.948.132-7.68.12-.372 0-.936-.048-1.332-.12l-.084.168c-.012.036 0 .072.036.108.3.24.744.492 1.176.624.288-.096.9-.204 1.2-.228.636-.036 6.132-.108 6.972-.096.36 0 1.068.024 1.392.06a.552.552 0 0 0 .252-.444c0-.096-.072-.168-.156-.204-.276-.084-.912-.156-1.344-.168l-.432.18zm10.99-3.108c-.84.048-6.948.132-7.68.12-.372 0-.936-.048-1.332-.132l-.084.18c-.012.036 0 .072.036.108.3.228.744.456 1.176.576.288-.096.9-.204 1.2-.228.624-.036 6.132-.108 6.972-.096.36 0 1.068.024 1.392.06a.48.48 0 0 0 .252-.396c0-.108-.072-.168-.156-.204-.276-.084-.912-.156-1.344-.18l-.432.192zm-1.344 5.136c-.756.036-3.12.048-4.116.036-.144 0-.216-.06-.216-.216v-1.092l5.028-.06a.54.54 0 0 0 .096-.288c0-.048-.012-.072-.06-.108l-.216-.108c.096-.264.204-.828.24-1.152l.144-.276c.024-.072.024-.12-.024-.156a3.442 3.442 0 0 0-.468-.24c-.072-.024-.144-.024-.192 0l-.348.168c-.756.036-3.888.06-4.548.06-.312 0-.756-.036-1.08-.096l-.06.12c-.024.048-.024.084.036.132.252.18.588.372.948.492.288-.084.732-.168.948-.18.516-.024 2.952-.06 3.708-.048.012.264 0 .9-.036 1.164l-.192.06c-.48.024-3.024.048-3.9.048-.3-.036-1.08-.06-1.416-.06-.072 0-.108.024-.12.072l-.036.216c.264.06.516.156.672.3v1.008c0 .54.204.744.84.744l5.64-.024a.264.264 0 0 0 .156-.048c.048-.048.12-.204.12-.408 0-.084-.06-.144-.156-.156-.216-.06-.72-.084-1.032-.084l-.36.18zm-5.328-6.792c0 .528.204.72.84.732l5.46-.072c.06 0 .108-.012.144-.048a.554.554 0 0 0 .12-.372c0-.084-.048-.132-.144-.156a8.382 8.382 0 0 0-1.044-.072l-.348.18c-.684.048-2.952.072-3.936.06-.168 0-.216-.072-.216-.204v-1.056l5.076-.084c.06-.036.108-.156.108-.276a.099.099 0 0 0-.06-.096l-.228-.12c.084-.252.204-.768.24-1.092l.144-.276a.13.13 0 0 0-.024-.156 7.79 7.79 0 0 0-.456-.252.264.264 0 0 0-.192 0l-.348.168c-.732.024-3.876.06-4.536.06-.3 0-.768-.036-1.092-.096l-.06.12c-.024.036-.012.084.036.12.252.192.6.384.96.516.288-.084.732-.156.96-.168.504-.036 2.868-.06 3.648-.048.012.252 0 .84-.036 1.104l-.18.048c-.492.036-3.06.072-3.936.084-.312-.048-1.092-.072-1.428-.072-.072 0-.108.036-.12.072l-.048.216c.276.06.528.168.696.312v.924zM184.397 71l-2.028-1.176.072-.096a.492.492 0 0 0 .084-.264c0-.084-.048-.132-.132-.204-.036-.036-.084-.06-.144-.096.96-.024 1.896-.036 2.16-.036.264 0 .852.012 1.08.048a.556.556 0 0 0 .24-.444.166.166 0 0 0-.12-.156c-.228-.06-.756-.12-1.08-.132l-.384.18c-.588.036-4.428.108-4.98.096-.264 0-.744-.036-1.08-.084l-.084.144c-.012.024-.012.06.036.096.252.204.636.432.96.54.216-.084.648-.168.888-.192.192-.012.84-.024 1.584-.048.036.036.06.06.084.096.072.084.084.144.012.24-.648.912-1.968 1.812-3.612 2.544-.06.024-.072.048-.048.096l.108.132c.036.036.048.036.12.024 1.716-.516 3.048-1.2 3.924-2.112l3.12 1.98c.096.072.228.12.3.12.12.012.288-.132.3-.276.012-.084-.036-.168-.132-.288a5.727 5.727 0 0 0-.72-.648l-.528-.084zm-2.544-5.196a5.04 5.04 0 0 0 .132-1.092l.036-2.364.024-.468c0-.096-.024-.156-.12-.204-.288-.108-.888-.228-1.26-.252-.084 0-.12.012-.132.06l-.096.276c.3.12.576.288.72.468v1.332l-3.156.036v-.732l.012-.504c0-.096-.036-.156-.12-.18-.312-.084-.936-.156-1.308-.156-.084 0-.132.036-.144.06l-.072.288c.3.072.588.216.744.372l.072 3.408c0 .216.036.516.096.708h.468c.084-.096.168-.264.204-.504.864-.012 3.276-.036 4.128-.048.06-.048.108-.192.108-.324a.105.105 0 0 0-.084-.108l-.252-.072zm-.696-1.728v1.716l-3.18.036.012-1.704 3.168-.048zm-1.032 3.216c0 .024-.012.048.012.096.204.24.492.48.732.612.072.036.096.036.204.036.564-.048 1.548-.06 2.232-.072.072 0 .12-.012.156-.072a.6.6 0 0 0 .024-.384c-.012-.072-.072-.108-.168-.108-.864 0-2.004-.036-3.108-.228l-.084.12zm4.116-1.68c0 .456.024 1.308.072 1.704h.504c.18-.456.276-1.248.276-1.98V61.94l.036-.624c0-.12-.036-.204-.144-.24-.348-.144-1.092-.3-1.524-.312-.096 0-.12.024-.132.06l-.096.288c.42.144.804.36 1.008.612v3.888zm10.594-4.5c.384.132.744.336.936.576v3.936l-1.668.048v-3.036l.036-.528c0-.108-.036-.18-.132-.228-.288-.132-.948-.264-1.332-.276-.084 0-.12.024-.132.06l-.096.288c.348.108.684.3.852.516v4.968c-1.212.312-3 .528-4.08.552-.168 0-.216-.072-.216-.216v-3.924l.012-.576c0-.12-.048-.192-.168-.216-.288-.072-.936-.12-1.308-.12-.072 0-.108.024-.12.072l-.06.288c.288.084.6.228.78.372v3.924c0 .24.024.432.06.552.12.36.384.588.78.588.108 0 .252 0 .396-.012 1.116-.084 2.7-.372 3.924-.792v1.476c0 .504.012 1.56.072 2.04h.468c.156-.624.264-1.668.264-2.328v-2.892l1.668-.048v4.02c0 .516.024 1.632.072 2.1h.48c.18-.648.288-1.728.288-2.388V61.88l.024-.588c.012-.108-.024-.192-.144-.228-.3-.144-1.02-.288-1.428-.3-.084 0-.12.024-.144.072l-.084.276zm11.985 4.812c-.84.048-6.948.132-7.68.12-.372-.012-.936-.06-1.332-.132l-.084.18c-.012.036 0 .072.036.096.3.252.744.492 1.176.624.288-.096.9-.216 1.2-.24.276-.012 1.452-.036 2.772-.048v.468c0 .252.012.6.048.888-.924.012-1.812.012-2.124.012-.312 0-.756-.036-1.08-.096l-.06.132c-.024.036-.024.072.036.12.252.18.588.372.948.504.288-.096.732-.168.96-.18.504-.024 2.916-.06 3.696-.048.012.276 0 .96-.036 1.236l-.204.06c-.468.024-2.916.048-3.804.048-.312-.036-1.08-.06-1.416-.06-.072 0-.108.024-.12.06l-.036.228c.264.048.516.156.672.3v1.08c0 .54.204.744.864.744l5.568-.024c.048 0 .108-.012.144-.06a.597.597 0 0 0 .132-.396c0-.084-.06-.144-.156-.168a8.171 8.171 0 0 0-1.044-.084l-.348.192c-.732.024-3.108.036-4.068.024-.144 0-.216-.06-.216-.204v-1.164l4.944-.06a.455.455 0 0 0 .096-.288c0-.048-.012-.084-.06-.108l-.216-.108a6.27 6.27 0 0 0 .24-1.236l.144-.276c.024-.072.024-.12-.024-.156a2.86 2.86 0 0 0-.468-.24c-.072-.024-.144-.024-.192 0l-.348.168c-.312.012-.996.024-1.752.036a4.29 4.29 0 0 0 .132-1.044v-.312c1.488-.024 2.952-.036 3.348-.036.36 0 1.068.024 1.392.06.108-.048.252-.228.252-.432 0-.096-.072-.156-.156-.192-.276-.096-.912-.168-1.344-.18l-.432.192zm-8.028-.552c.036.012.06.012.132.012a18.749 18.749 0 0 0 4.332-1.44l3.924.972c.108.024.24.036.3.012.132-.048.24-.204.216-.348-.024-.072-.072-.144-.192-.216-.18-.108-.552-.252-.816-.348l-.696.024-2.028-.456a11.274 11.274 0 0 0 2.232-1.548l.312-.3c.048-.06.048-.12-.012-.168a6.056 6.056 0 0 0-.6-.252.333.333 0 0 0-.216 0l-.504.192c-.66.048-3.828.084-4.428.084-.336 0-.804-.036-1.152-.096l-.096.156a.097.097 0 0 0 .036.108c.288.216.684.408 1.032.516.24-.084.744-.18.984-.192a90.825 90.825 0 0 1 3.384-.036c-1.464 1.236-3.684 2.304-6.216 3.072-.06.024-.06.06-.024.108l.096.144zm21.008 1.92c0 .552.024 1.596.072 2.076h.504c.168-.6.288-1.536.288-2.376V61.94l.024-.624c0-.12-.036-.204-.144-.24-.336-.144-1.092-.3-1.524-.312-.096 0-.12.024-.132.06l-.096.288c.42.144.804.36 1.008.612v2.652a34.61 34.61 0 0 1-1.776.048c-.312 0-.684-.024-.984-.06l-.06.12c-.024.06 0 .084.036.132.24.192.54.396.876.54.228-.108.552-.18.768-.204.228-.024.732-.048 1.14-.06v2.4zm-2.544.192c.072.096.192.192.264.204.144.048.348-.036.408-.192.024-.072 0-.18-.072-.336-.108-.216-.372-.6-.576-.864l-.504-.192-1.644-1.5c.384-.6.66-1.2.828-1.8.012-.06.024-.156.024-.252a.247.247 0 0 0-.144-.228c-.24-.156-.888-.408-1.296-.48-.072-.012-.108 0-.132.036l-.144.252c.3.168.576.432.684.66-.444 1.584-1.692 3.42-3.36 4.86-.048.036-.048.072-.024.108l.132.132c.036.024.072.024.132 0a11.413 11.413 0 0 0 2.988-2.808l2.436 2.4zm2.58 3.828c-.72.036-2.916.048-3.696.036-.216 0-.3-.096-.3-.312v-1.788l.012-.54c0-.132-.06-.204-.168-.228-.3-.06-.984-.108-1.38-.108-.072 0-.12.024-.132.072l-.06.264c.324.072.66.204.852.348v1.872c0 .672.264.936 1.056.948l5.196-.036c.072 0 .12-.012.156-.06.06-.048.132-.204.132-.42 0-.096-.06-.156-.156-.168a6.094 6.094 0 0 0-1.128-.084l-.384.204zm11.458-5.352c-.84.06-6.948.132-7.68.12-.372 0-.936-.048-1.332-.12l-.084.168a.097.097 0 0 0 .036.108c.3.24.744.48 1.176.612.288-.096.9-.204 1.2-.228a213.73 213.73 0 0 1 2.712-.06v.468c0 .252.012.6.048.888-.912.012-1.776.024-2.088.024-.312 0-.756-.036-1.08-.108l-.06.132c-.024.048-.012.084.036.12.252.192.588.372.948.504a5.32 5.32 0 0 1 .96-.18c.516-.024 2.94-.06 3.72-.048.012.276 0 .924-.036 1.212l-.192.06c-.468.024-2.928.048-3.84.06a17.8 17.8 0 0 0-1.404-.06c-.072 0-.108.024-.12.06l-.048.228c.276.048.528.156.684.3v1.068c0 .528.204.744.864.744l5.544-.024a.215.215 0 0 0 .156-.06.688.688 0 0 0 .12-.396c0-.084-.06-.144-.156-.168-.216-.048-.72-.084-1.032-.084l-.36.18c-.732.036-3.084.048-4.044.036-.156 0-.216-.06-.216-.204V70.16l4.956-.06a.467.467 0 0 0 .096-.3.099.099 0 0 0-.06-.096l-.216-.108c.096-.276.216-.864.24-1.212l.144-.288c.024-.06.024-.12-.024-.156-.108-.06-.348-.18-.468-.24-.072-.024-.144-.024-.192 0l-.348.168c-.324.012-1.032.036-1.812.048.084-.324.132-.732.132-1.068v-.3c1.512-.012 3-.024 3.408-.024.36 0 1.068.024 1.392.06a.529.529 0 0 0 .252-.432c0-.096-.072-.168-.156-.192-.276-.096-.912-.168-1.344-.18l-.432.18zm-6.336-1.272c.012.204.06.42.12.564h.48a.717.717 0 0 0 .144-.336l4.932-.06a.631.631 0 0 0 .144-.384c0-.06-.036-.096-.084-.132l-.216-.084c.156-.672.264-1.428.312-2.076l.144-.42c.024-.06.024-.12-.024-.144a4.329 4.329 0 0 0-.528-.264.264.264 0 0 0-.192 0l-.42.228c-.984.036-3.132.048-4.116.048-.348-.06-1.02-.12-1.38-.12-.072 0-.108.012-.12.048l-.06.276c.252.072.516.216.648.348l.216 2.508zm4.824-.444-.252.072c-.864.036-2.724.072-3.804.06l-.06-2.208c1.284-.024 2.892-.048 4.2-.036l-.084 2.112zm12.502 5.316c-.36.024-1.692.048-3.156.072v-2.964l2.64-.024c.072-.06.144-.216.144-.372 0-.06-.036-.12-.084-.132l-.252-.096c.156-.996.288-2.136.336-3.108l.156-.396c.024-.072.024-.12-.024-.156a7.751 7.751 0 0 0-.552-.288.264.264 0 0 0-.192 0l-.396.228c-1.056.048-3.432.06-4.512.06a9.909 9.909 0 0 0-1.464-.132c-.072 0-.096.024-.108.06l-.072.276c.288.072.576.228.72.384l.216 3.492c.024.228.06.492.132.672h.468a1.09 1.09 0 0 0 .156-.444l1.848-.012v2.964c-1.68.024-3.324.036-3.684.036-.372 0-.936-.048-1.332-.12l-.084.168c-.012.036 0 .072.036.108.3.24.744.492 1.176.624.288-.096.9-.204 1.2-.228.636-.036 6.132-.108 6.972-.096.36 0 1.068.024 1.392.06a.552.552 0 0 0 .252-.444c0-.096-.072-.168-.156-.204-.276-.084-.912-.156-1.344-.18l-.432.192zm-5.88-6.66a288.08 288.08 0 0 1 4.572-.036l-.096 3.168-.252.072c-.924.036-2.988.06-4.164.048l-.06-3.252zm16.87 3.684c-.84.06-6.948.132-7.68.12-.372 0-.936-.048-1.332-.12l-.084.168c-.012.036 0 .072.036.108.3.24.744.492 1.176.624.288-.096.9-.204 1.2-.228.636-.036 6.132-.108 6.972-.096.36 0 1.068.024 1.392.06a.552.552 0 0 0 .252-.444c0-.096-.072-.168-.156-.192-.276-.096-.912-.168-1.344-.18l-.432.18zm-1.596 1.86c-.936.048-2.94.072-3.876.072a9.64 9.64 0 0 0-1.332-.12c-.072 0-.096.012-.108.048l-.06.24c.228.084.468.228.6.36l.204 2.64c.012.204.06.42.12.576h.48a.877.877 0 0 0 .132-.324l4.716-.048c.084-.06.144-.216.144-.384 0-.06-.012-.108-.084-.144l-.216-.096c.132-.72.216-1.512.264-2.196l.12-.408c.024-.06.024-.108-.024-.144-.096-.072-.36-.192-.492-.252a.264.264 0 0 0-.192 0l-.396.18zm-3.852.624c1.212-.036 2.7-.06 3.912-.06l-.036 2.256-.228.06c-.816.048-2.568.084-3.6.072l-.048-2.328zm1.836-3.276c1.584 0 2.76-.876 2.76-2.184 0-1.32-1.176-2.196-2.76-2.196-1.584 0-2.748.876-2.748 2.196 0 1.308 1.164 2.184 2.748 2.184zm0-3.804c1.056 0 1.872.6 1.872 1.62s-.816 1.608-1.872 1.608c-1.044 0-1.872-.588-1.872-1.608s.828-1.62 1.872-1.62zm14.133 9.312c-.708.036-2.892.048-3.66.036-.216 0-.3-.096-.3-.3v-1.788l.012-.528c0-.132-.048-.204-.168-.228-.3-.072-.984-.12-1.38-.12-.072 0-.12.024-.132.072l-.06.276c.324.072.66.192.852.348v1.86c0 .66.264.936 1.056.936l5.16-.036c.072 0 .12-.012.168-.048.06-.06.132-.204.132-.432 0-.084-.072-.144-.156-.168-.24-.048-.78-.084-1.128-.084l-.396.204zm-2.328-3.636c.072.072.168.156.252.18.144.036.348-.06.396-.192.036-.072.024-.156-.048-.3a4.93 4.93 0 0 0-.456-.768l-.504-.168-1.368-1.26c.636-.72 1.14-1.476 1.464-2.208l.228-.336c.048-.06.036-.12-.012-.156a6.143 6.143 0 0 0-.552-.252.298.298 0 0 0-.204 0l-.384.192c-.612.036-2.88.06-3.312.06-.3 0-.708-.024-1.02-.084l-.072.144c-.024.036-.012.072.036.108a3.7 3.7 0 0 0 .9.528 3.48 3.48 0 0 1 .852-.18c.324-.024 1.8-.048 2.484-.06-.804 1.74-2.46 3.66-4.62 5.136-.048.048-.036.072 0 .108l.132.12c.036.024.072.024.12-.012a14.337 14.337 0 0 0 3.576-2.688l2.112 2.088zm-.396-2.928c-.036.06-.012.084.024.132.24.192.54.384.864.528.216-.096.54-.18.756-.204.204-.024.672-.048 1.044-.06v2.16c0 .552.024 1.596.072 2.076h.504c.168-.6.288-1.536.288-2.376V61.94l.024-.624c0-.12-.036-.204-.144-.24-.336-.144-1.092-.3-1.524-.312-.096 0-.12.024-.132.06l-.096.288c.42.144.804.36 1.008.612v2.904c-.54.036-1.32.048-1.668.048-.312 0-.66-.024-.96-.06l-.06.12zM118.472 34.74v-.68h-5.28l-3.96 10.62-4.08-10.62h-5.52v.68l2.12.26-.08 13.04-2.2.28V49h5.4v-.68l-2.22-.3v-5.96c0-1.28-.04-3.86-.08-5.94l4.92 12.88h1.06l4.78-12.98-.08 6.44c-.04 1.62 0 3.64-.06 5.68l-1.76.18V49h7.02v-.68l-1.78-.18c-.06-2-.06-4.08-.06-6.16v-.88c0-2.08 0-4.14.06-6.2l1.8-.16zm4.289 8.04c.08-3.1.98-4.34 2.08-4.34 1.06 0 1.82.92 1.82 2.66 0 1.24-.24 1.7-1.18 1.7l-2.72-.02zm6.4 3.62c-.66.92-1.52 1.52-2.92 1.52-1.88 0-3.38-1.28-3.48-4.4h6.8c.1-.38.12-.72.12-1.22 0-2.54-1.62-4.56-4.62-4.56-2.86 0-5.72 2-5.72 5.76 0 3.74 2.44 5.84 5.74 5.84 2.04 0 3.64-.98 4.46-2.7l-.38-.24zm6.298-8.44-.28-.2-4.34 1.26v.48l1.5.16c.04.96.06 1.62.06 2.92v1.66c0 1.12-.02 2.84-.04 4l-1.36.14V49h6.5v-.62l-1.84-.18c-.02-1.18-.04-2.86-.04-3.96v-1.66c.38-1.48.86-2.34 1.66-3.08l.18.24c.54.72 1.02 1.2 1.78 1.2 1 0 1.4-.74 1.48-1.62-.2-1.2-1-1.58-1.94-1.58-1.2 0-2.56 1.04-3.16 3.08l-.16-2.86zm10.391 0-.28-.2-4.34 1.26v.48l1.5.16c.04.96.06 1.62.06 2.92v1.66c0 1.12-.02 2.84-.04 4l-1.36.14V49h6.5v-.62l-1.84-.18c-.02-1.18-.04-2.86-.04-3.96v-1.66c.38-1.48.86-2.34 1.66-3.08l.18.24c.54.72 1.02 1.2 1.78 1.2 1 0 1.4-.74 1.48-1.62-.2-1.2-1-1.58-1.94-1.58-1.2 0-2.56 1.04-3.16 3.08l-.16-2.86zm17.642.12h-4.12v.6l1.82.2-2.46 7.52-2.72-7.56 1.46-.16v-.6h-6.1v.6l1.16.12 4.74 11.28c-.58 1.44-1.14 2.38-1.9 3.02l-.32-.42c-.5-.64-1.08-1.1-1.88-1.1-.78 0-1.56.38-1.72 1.28.04.9 1.1 1.56 2.22 1.56 1.22 0 2.98-.94 4.16-4.06l4.32-11.5 1.34-.18v-.6zm18.194 6.54h-1.18l-1.06 3.74c-.5.18-1 .26-1.56.26-2.9 0-5.08-2.14-5.08-7.08 0-4.92 2.2-7.12 5-7.12.52 0 1 .06 1.46.2l1.1 3.82h1.18l.08-3.64c-1.3-.72-2.52-1.14-4.24-1.14-4.34 0-8.12 2.52-8.12 7.86 0 5.28 3.54 7.88 7.96 7.88 1.86 0 3.32-.46 4.54-1.18l-.08-3.6zm13.16 3.66a269.4 269.4 0 0 1-.04-4.04v-2.6c0-2.72-1.32-3.9-3.26-3.9-1.5 0-2.52.6-3.72 2.02v-3.88l.06-3.22-.28-.18-4.42.86v.52l1.46.14v10.24c0 1.12-.02 2.84-.04 4.02l-1.32.12V49h5.78v-.62l-1.16-.1c-.02-1.18-.04-2.92-.04-4.04v-3.92c.82-.74 1.6-1.08 2.24-1.08.88 0 1.46.56 1.46 2.12v2.88c0 1.16-.02 2.86-.04 4.02l-1.28.12V49h5.8v-.62l-1.2-.1zm6.824-10.32-.28-.2-4.34 1.26v.48l1.5.16c.04.96.06 1.62.06 2.92v1.66c0 1.12-.02 2.84-.04 4l-1.36.14V49h6.5v-.62l-1.84-.18c-.02-1.18-.04-2.86-.04-3.96v-1.66c.38-1.48.86-2.34 1.66-3.08l.18.24c.54.72 1.02 1.2 1.78 1.2 1 0 1.4-.74 1.48-1.62-.2-1.2-1-1.58-1.94-1.58-1.2 0-2.56 1.04-3.16 3.08l-.16-2.86zm8.931-2.2c.96 0 1.74-.68 1.74-1.62 0-.96-.78-1.64-1.74-1.64-.94 0-1.72.68-1.72 1.64 0 .94.78 1.62 1.72 1.62zm1.72 12.5c-.02-1.16-.04-2.9-.04-4.02v-3.08l.08-3.2-.28-.2-4.58 1.2v.48l1.5.16c.04 1.02.06 1.76.06 3.04v1.6c0 1.12-.02 2.84-.04 4.02l-1.32.12V49h5.84v-.62l-1.22-.12zm7.248-6.32c-1.56-.48-1.96-1.08-1.96-1.82 0-1 .8-1.62 2.02-1.62.6 0 1.02.1 1.44.3l.76 2.36h1.12l.16-2.52c-1.18-.58-2.2-.9-3.54-.9-2.94 0-4.58 1.52-4.58 3.62 0 1.7 1.06 2.72 2.86 3.28l1.16.34c1.6.5 1.98 1.1 1.98 1.94 0 1.1-.84 1.64-2.36 1.64-.64 0-1.14-.1-1.64-.3l-.62-2.64h-1.28l-.16 2.72c1.18.66 2.4 1 3.96 1 3.02 0 4.88-1.36 4.88-3.68 0-1.64-.92-2.76-3.02-3.38l-1.18-.34zm12.575 5.42c-.52.44-.86.64-1.36.64-.8 0-1.32-.46-1.32-1.54V38.9h2.48v-.82h-2.48l.04-3.22h-2.06l-1.04 3.2-1.78.2v.64h1.62v5.12c0 .84-.02 1.42-.02 2.18-.02 2.22 1.08 3.14 3.12 3.14 1.54 0 2.54-.58 3.14-1.66l-.34-.32zm19.066.9c-.02-1.14-.04-2.84-.04-4.02v-2.52c0-2.72-1.02-3.98-3.26-3.98-1.3 0-2.38.5-3.7 2.08-.42-1.4-1.44-2.08-2.94-2.08-1.36 0-2.44.62-3.6 2l-.14-1.78-.28-.2-4.34 1.26v.46l1.5.16c.04.98.06 1.62.06 2.94v1.66c0 1.12-.02 2.84-.04 4.02l-1.34.12V49h5.78v-.62l-1.14-.1c-.02-1.18-.04-2.92-.04-4.04v-3.82c.72-.7 1.48-1.16 2.2-1.16.96 0 1.38.64 1.38 2.28v2.7c0 1.16-.02 2.86-.04 4.02l-1.28.12V49h5.66v-.62l-1.12-.1c-.04-1.16-.06-2.86-.06-4.04V41.6c0-.42-.02-.8-.08-1.16.76-.76 1.5-1.18 2.24-1.18.96 0 1.4.52 1.4 2.28v2.7c0 1.16-.02 2.86-.04 4.02l-1.2.12V49h5.66v-.62l-1.2-.12zm8.591-1.2c-.74.66-1.2.92-1.74.92-.94 0-1.5-.56-1.5-1.76 0-1.46.74-2.4 2.14-2.98.24-.1.64-.22 1.1-.34v4.16zm-4.28-8.14.32-.12-.32.12zm8.92 8.58c-.38.6-.6.76-.9.76-.38 0-.62-.26-.62-1.02v-5.38c0-2.9-1.14-4.12-3.98-4.12-3.1 0-4.84 1.2-5 3.08.16.66.66 1.02 1.38 1.02.76 0 1.44-.54 1.5-1.9l.14-1.42c.3-.06.56-.08.84-.08 1.52 0 2 .62 2 2.7v1.22c-.7.18-1.4.36-1.96.52-3.22.94-4.26 1.92-4.26 3.74 0 1.68 1.2 2.72 2.92 2.72 1.6 0 2.36-.62 3.38-1.74.3 1.08 1.04 1.74 2.36 1.74 1.28 0 2.04-.46 2.54-1.56l-.34-.28zm5.772-5.56c-1.56-.48-1.96-1.08-1.96-1.82 0-1 .8-1.62 2.02-1.62.6 0 1.02.1 1.44.3l.76 2.36h1.12l.16-2.52c-1.18-.58-2.2-.9-3.54-.9-2.94 0-4.58 1.52-4.58 3.62 0 1.7 1.06 2.72 2.86 3.28l1.16.34c1.6.5 1.98 1.1 1.98 1.94 0 1.1-.84 1.64-2.36 1.64-.64 0-1.14-.1-1.64-.3l-.62-2.64h-1.28l-.16 2.72c1.18.66 2.4 1 3.96 1 3.02 0 4.88-1.36 4.88-3.68 0-1.64-.92-2.76-3.02-3.38l-1.18-.34z" fill="#fff"/>
    <path d="M99.012 52h175.981v1H99.012v-1z" fill="#fff"/>
    <circle cx="316" cy="32" r="2" fill="#fff"/>
    <circle cx="354" cy="64" r="2" fill="#fff"/>
    <circle cx="357" cy="43" r="3" fill="#fff"/>
    <circle cx="310" cy="66" r="3" fill="#fff"/>
    <circle cx="345.5" cy="16.5" r=".5" fill="#fff"/>
    <circle cx="369.5" cy="77.5" r=".5" fill="#fff"/>
    <circle cx="316.5" cy="14.5" r="1.5" fill="#fff"/>
    <circle cx="297.5" cy="78.5" r=".5" fill="#fff"/>
    <circle cx="350" cy="55" r="1" fill="#fff"/>
    <circle cx="288.5" cy="25.5" r="1.5" fill="#fff"/>
    <circle cx="314" cy="89" r="1" fill="#fff"/>
    <circle cx="322.5" cy="63.5" r="1.5" fill="#fff"/>
    <circle cx="337.5" cy="82.5" r="1.5" fill="#fff"/>
    <circle cx="24" cy="32" r="3" fill="#fff"/>
    <circle cx="77" cy="53" r="3" fill="#fff"/>
    <circle cx="27" cy="78" r="3" fill="#fff"/>
    <circle cx="36.5" cy="24.5" r="1.5" fill="#fff"/>
    <circle cx="70.5" cy="65.5" r="1.5" fill="#fff"/>
    <circle cx="47.5" cy="45.5" r=".5" fill="#fff"/>
    <circle cx="14.5" cy="81.5" r=".5" fill="#fff"/>
    <circle cx="23.5" cy="14.5" r=".5" fill="#fff"/>
    <circle cx="83.5" cy="25.5" r=".5" fill="#fff"/>
    <circle cx="13" cy="46" r="1" fill="#fff"/>
    <circle cx="42.5" cy="73.5" r="1.5" fill="#fff"/>
    <circle cx="52" cy="87" r="1" fill="#fff"/>
    <circle cx="95.5" cy="16.5" r="1.5" fill="#fff"/>
    <circle cx="82" cy="11" r="1" fill="#fff"/>
</svg>
