<svg width="75" height="75" viewBox="0 0 75 75" fill="none" xmlns="http://www.w3.org/2000/svg">
    <mask id="a" style="mask-type:alpha" maskUnits="userSpaceOnUse" x="0" y="0" width="75" height="75">
        <circle cx="37.5" cy="37.5" r="37.5" fill="#FED9DE"/>
    </mask>
    <g mask="url(#a)">
        <circle cx="37.5" cy="37.5" r="37.5" fill="#F1F3F5"/>
        <path d="m32.09 52.756 2.828-6.222h9.051l1.132 6.222-6.223 7.92-6.788-7.92z" fill="#FFDECF" stroke="#2D3852" stroke-width="1.5"/>
        <path d="M41 52.5c-2-.4-4.833-3-6-4l9 .5.5 2.5L44 53c-.167-.167-1-.1-3-.5z" fill="#2D3852"/>
        <path fill-rule="evenodd" clip-rule="evenodd" d="M25.232 38.985c1.773 5.614 6.098 10.842 14.982 10.333 12.412-.71 11.398-14.75 10.919-21.389C51.06 26.927 51 26.094 51 25.5l.001-.49c.019-4.725.055-14.12-13.05-13.027-10.45.87-13.359 11.237-13.564 16.89-2.086.146-3.742 2.367-3.742 5.084 0 2.812 1.773 5.092 3.96 5.092.213 0 .423-.022.627-.064z" fill="#FFDECF"/>
        <path d="m40.214 49.318.043.749-.043-.749zM25.232 38.985l.715-.226-.204-.644-.662.135.15.735zm25.9-11.056.749-.054-.748.054zm-.13-2.92-.75-.003.75.003zM37.95 11.983l-.062-.748.062.748zm-13.564 16.89.052.749.672-.047.025-.674-.75-.027zM40.17 48.57c-4.276.245-7.39-.89-9.644-2.706-2.267-1.827-3.724-4.394-4.58-7.104l-1.43.452c.917 2.904 2.51 5.757 5.069 7.82 2.573 2.074 6.063 3.3 10.67 3.036l-.085-1.498zm10.214-20.586c.241 3.342.598 8.38-.6 12.662-.594 2.127-1.56 4.017-3.07 5.414-1.5 1.388-3.592 2.341-6.544 2.51l.086 1.498c3.254-.187 5.69-1.254 7.476-2.907 1.776-1.642 2.854-3.81 3.497-6.111 1.28-4.576.889-9.877.65-13.174l-1.495.108zM50.25 25.5c0 .627.063 1.493.135 2.483l1.496-.108c-.074-1.014-.13-1.815-.13-2.375h-1.5zm.001-.494v.494h1.5v-.488l-1.5-.006zM38.013 12.73c3.192-.266 5.515.113 7.209.85 1.682.733 2.788 1.839 3.527 3.112 1.508 2.598 1.512 5.917 1.502 8.314l1.5.006c.01-2.326.04-6.067-1.705-9.074-.888-1.53-2.23-2.863-4.225-3.732-1.984-.865-4.572-1.25-7.932-.97l.124 1.494zM25.136 28.901c.1-2.738.857-6.61 2.833-9.879 1.96-3.241 5.102-5.88 10.044-6.292l-.124-1.495c-5.508.46-9.045 3.439-11.204 7.012-2.142 3.544-2.942 7.683-3.048 10.6l1.499.054zm-3.741 5.056c0-2.489 1.497-4.227 3.044-4.335l-.105-1.496c-2.624.183-4.439 2.885-4.439 5.831h1.5zm3.21 4.342c-1.608 0-3.21-1.758-3.21-4.342h-1.5c0 3.04 1.944 5.842 4.71 5.842v-1.5zm.476-.049a2.373 2.373 0 0 1-.476.049v1.5c.264 0 .524-.027.777-.08l-.3-1.469z" fill="#2D3852"/>
        <path d="M36 29.328c-1-.5-2-.5-3 .5M44 29.328c1-.5 2-.5 3 .5" stroke="#2D3852" stroke-width="1.5" stroke-linecap="round"/>
        <ellipse cx="35" cy="34" rx="1" ry="2" fill="#2D3852"/>
        <ellipse cx="45" cy="34" rx="1" ry="2" fill="#2D3852"/>
        <mask id="b" style="mask-type:alpha" maskUnits="userSpaceOnUse" x="33" y="38" width="14" height="7">
            <path d="M33.12 39.946C32.158 43.45 37.196 45 40.006 45c2.332 0 7.445-.456 6.963-3.96-.602-4.378-4.214-1.094-6.623-1.094-2.408 0-6.02-4.379-7.224 0z" fill="#F93F5B"/>
        </mask>
        <g mask="url(#b)">
            <path d="M34.5 41c.333.667 1.9 2 5.5 2s5.167-1.333 5.5-2" stroke="#2D3852" stroke-width="1.5" stroke-linecap="round"/>
        </g>
        <path d="M40 35c1.642 1.2.985 3 0 3" stroke="#2D3852" stroke-width="1.5" stroke-linecap="round"/>
        <path d="M52.581 25.956c-9.287.517-16.497-3.658-18.941-5.81-3.055-3.443-5.988-10.07 6.721-9.038 12.71 1.033 13.442 10.33 12.22 14.848z" fill="#495470" stroke="#2D3852" stroke-width="1.5" stroke-linejoin="round"/>
        <path d="M22.172 22.026c.473-6.77 6.894-8.838 10.045-9.026.59.752 1.418 3.385 0 7.897-1.418 4.513-4.136 6.394-5.318 6.77v6.205L25.717 35l-1.772-5.641c-1.773 0-2.246-.564-1.773-7.333z" fill="#495470" stroke="#2D3852" stroke-width="1.5" stroke-linejoin="round"/>
        <path d="M10.177 66.436C12.434 60.032 22.027 56.144 26.541 55l12.415 4.574L50.806 55c5.868 0 15.235 7.624 19.185 11.436.188.381-2.596 3.43-15.236 12.58-15.8 11.435-47.4-4.575-44.578-12.58z" fill="#8D9ABB" stroke="#2D3852" stroke-width="1.5"/>
        <path d="m39 60-6.632-8-7.868 3.5L39 60zM39 60l5.684-8L51 55l-12 5z" fill="#5169A8" stroke="#2D3852" stroke-width="1.5" stroke-linejoin="round"/>
        <path d="m39 60-2 4" stroke="#2D3852" stroke-width="1.5" stroke-linecap="round"/>
    </g>
</svg>
