<svg width="75" height="75" viewBox="0 0 75 75" fill="none" xmlns="http://www.w3.org/2000/svg">
    <mask id="a" style="mask-type:alpha" maskUnits="userSpaceOnUse" x="0" y="0" width="75" height="75">
        <circle cx="37.5" cy="37.5" r="37.5" fill="#FED9DE"/>
    </mask>
    <g mask="url(#a)">
        <circle cx="37.5" cy="37.5" r="37.5" fill="#F1F3F5"/>
        <path d="M58.5 60.5C47.946 61.912 36.777 49.881 34 44c-3.472-9.412 7.7-35.478 15.5-23 5 8 4 30.5 9 39.5z" fill="#7E4D4D" stroke="#7E4D4D" stroke-linejoin="round"/>
        <path d="M22.5 59.978C33.054 61.39 40.223 49.881 43 43.999c3.472-9.41 7.829-27.43-6.613-24.606C21.945 22.216 21.11 47.626 22.5 59.978z" fill="#7E4D4D" stroke="#7E4D4D" stroke-linejoin="round"/>
        <path d="M34.919 46.534h9.05L46 54l6.5 1.5L39 70 26 59.5v-3l7-2.5 1.919-7.466z" fill="#FFDECF" stroke="#4F2F2F" stroke-width="1.5"/>
        <path d="M37.895 51.73C36.737 50.903 36.286 48.97 35 48c0 0 8.63.344 9.263.414.634.071 1.737 4.466 1.737 4.466s-2.37.094-3.474.094c-1.102 0-2.459.312-4.631-1.243z" fill="#4F2F2F"/>
        <path d="M51.847 28c-5.234 0-11.515-12.564-19.366-6.765-2.617-3.328-5.697-10.148 5.234-10.148 14.132 0 15.179 12.546 14.132 16.913z" fill="#7E4D4D" stroke="#7E4D4D" stroke-linejoin="round"/>
        <path fill-rule="evenodd" clip-rule="evenodd" d="M25.507 38.929c1.887 5.403 6.127 10.88 14.707 10.389 12.053-.69 10.613-13.907 9.868-20.74-.138-1.265-.252-2.312-.252-3.019C49.83 21.034 44.5 17 38 17c-9.263 0-13.416 6.703-13.618 12.106C23.022 29.581 22 31.591 22 34c0 2.761 1.343 5 3 5 .173 0 .342-.024.507-.071z" fill="#FFDECF"/>
        <path d="m40.214 49.318-.043-.749.043.749zm-14.707-10.39.708-.246-.233-.668-.68.193.205.722zm24.575-10.35-.745.082.745-.082zm-25.7.528.247.708.484-.168.019-.512-.75-.028zM40.171 48.57c-4.107.235-7.122-.954-9.339-2.81-2.233-1.87-3.702-4.458-4.617-7.078l-1.416.495c.973 2.784 2.567 5.636 5.07 7.733 2.52 2.11 5.915 3.414 10.388 3.158l-.086-1.498zm9.166-19.91c.375 3.444.898 8.32-.118 12.412-.504 2.03-1.375 3.813-2.785 5.127-1.4 1.306-3.395 2.207-6.263 2.371l.086 1.498c3.159-.181 5.504-1.19 7.2-2.771 1.687-1.572 2.669-3.65 3.218-5.864 1.092-4.397.522-9.546.153-12.935l-1.491.163zm-.257-3.1c0 .758.121 1.855.257 3.1l1.491-.162c-.14-1.285-.248-2.282-.248-2.938h-1.5zM38 17.75c3.1 0 5.9.963 7.909 2.437 2.016 1.48 3.172 3.418 3.172 5.372h1.5c0-2.57-1.51-4.912-3.785-6.581C44.515 17.304 41.4 16.25 38 16.25v1.5zM25.132 29.134C25.322 24.067 29.204 17.75 38 17.75v-1.5c-9.73 0-14.153 7.088-14.367 12.828l1.499.056zM22.75 34c0-1.103.235-2.093.604-2.84.375-.762.847-1.196 1.275-1.346l-.494-1.416c-.932.325-1.651 1.133-2.127 2.098-.482.978-.758 2.199-.758 3.504h1.5zM25 38.25c-.462 0-1.007-.316-1.478-1.1-.462-.77-.772-1.882-.772-3.15h-1.5c0 1.493.362 2.882.986 3.921.615 1.025 1.569 1.829 2.764 1.829v-1.5zm.302-.043a1.1 1.1 0 0 1-.302.043v1.5c.244 0 .482-.035.712-.1l-.41-1.443z" fill="#4F2F2F"/>
        <path d="M36 28.5c-1-.5-2-.5-3 .5M44 28.5c1-.5 2-.5 3 .5M40 34c3 2.5.985 3 0 3" stroke="#4F2F2F" stroke-width="1.5" stroke-linecap="round"/>
        <path d="M20.5 27.812c-.706-6.69 6.436-16.022 11.878-14.536 2.633-.134 1.635 4.251 0 8.724-1.636 4.473-4.772 5.44-6.135 5.812L25.5 44l-1 15-6 2.5c2.986-6.5 3.986-14.875 2-33.688z" fill="#7E4D4D" stroke="#7E4D4D" stroke-linejoin="round"/>
        <path d="M10.177 66.436c2.16-6.126 10.535-9.035 15.21-10.277.375-.1.77.03 1.043.305 1.32 1.325 5.677 5.036 13.07 5.036 6.405 0 10.986-4.74 12.188-6.125a.984.984 0 0 1 .803-.358c5.764.397 13.494 7.559 17.377 11.3.084.08.145.18.099.285-.358.803-3.692 4.075-15.212 12.413-15.8 11.436-47.4-4.574-44.578-12.58z" fill="#D48A8A" stroke="#4F2F2F" stroke-width="1.5"/>
    </g>
    <path d="M19 58c2.986-6.5 3.486-11.375 1.5-30.188-.5-4.437.8-13.712 10-15.312 3.167-1.333 10.6-3.2 15 0 5.5 4 8 8.625 7 15.312C53.833 37.375 57 56 57.5 56.5M26.243 48V27.812C27.606 27.44 31.5 27 34.5 16" stroke="#4F2F2F" stroke-width="1.5" stroke-linecap="round" stroke-linejoin="round"/>
    <ellipse cx="35" cy="33" rx="1" ry="2" fill="#4F2F2F"/>
    <ellipse cx="45" cy="33" rx="1" ry="2" fill="#4F2F2F"/>
    <path d="M34.5 41c.333.667 1.9 2 5.5 2s5.167-1.333 5.5-2" stroke="#4F2F2F" stroke-width="1.5" stroke-linecap="round"/>
</svg>
