<svg width="91" height="89" viewBox="0 0 91 89" fill="none" xmlns="http://www.w3.org/2000/svg">
<path d="M0.0336914 36.7651V4.74019C0.0336914 2.12299 2.15607 0.000610352 4.77328 0.000610352H20.2921C31.6463 0.000610352 41.2176 8.92917 41.4941 20.2785C41.7779 31.9455 32.3715 41.5241 20.7676 41.5241H4.79511C2.16578 41.5265 0.0336914 39.3945 0.0336914 36.7651Z" fill="#F93F5B"/>
<path d="M69.3815 1.56268L90.1081 36.6875C91.3573 38.805 89.8316 41.4805 87.3721 41.4805H45.9189C43.4594 41.4805 41.9337 38.8075 43.1828 36.6875L63.9094 1.56268C65.1392 -0.520893 68.1518 -0.520893 69.3815 1.56268Z" fill="#F93F5B"/>
<path d="M5.26352 48.1605L19.589 59.0052C20.7606 59.893 22.3784 59.893 23.5524 59.0052L37.9143 48.1314C40.073 46.4965 43.1705 48.0319 43.1778 50.7389L43.2699 84.0469C43.2772 86.7806 41.0651 89 38.3315 89H5.02096C2.30431 89 0.0994616 86.8024 0.0921848 84.0857L1.27677e-05 50.7874C-0.00726397 48.0707 3.09748 46.5232 5.26352 48.1605Z" fill="#F93F5B"/>
<path d="M71.368 48.6117C70.8853 47.1612 68.8575 47.1612 68.3724 48.6117C67.0383 52.6187 64.5133 57.516 59.7106 61.5885C56.5064 64.3076 53.1446 65.9303 50.212 66.903C48.781 67.3784 48.7591 69.4013 50.1878 69.8816C54.1827 71.2229 59.0484 73.7455 63.0992 78.5215C65.7867 81.6893 67.4021 85.0099 68.3796 87.9182C68.8648 89.359 70.8804 89.359 71.3655 87.9182C72.343 85.0075 73.9585 81.6893 76.646 78.5215C80.6967 73.7455 85.5625 71.2205 89.5574 69.8816C90.986 69.4013 90.9618 67.3784 89.5331 66.903C86.5982 65.9279 83.2387 64.3052 80.0346 61.5885C75.2271 57.516 72.702 52.6187 71.368 48.6117Z" fill="#F93F5B"/>
</svg>
