<svg width="92" height="21" viewBox="0 0 92 21" fill="none" xmlns="http://www.w3.org/2000/svg">
<path d="M0 18.4544V2.40667C0 1.09527 1.06334 0.0319214 2.37474 0.0319214H10.1505C15.8394 0.0319214 20.6368 4.50524 20.7741 10.194C20.9163 16.04 16.2032 20.8407 10.3887 20.8407H2.38633C1.06831 20.8391 0 19.7724 0 18.4544Z" fill="#F93F5B"/>
<path d="M33.7128 0.815786L44.0999 18.4163C44.7266 19.478 43.961 20.8176 42.7289 20.8176H21.9565C20.7245 20.8176 19.9588 19.478 20.5856 18.4163L30.971 0.815786C31.5862 -0.229367 33.0976 -0.229367 33.7128 0.815786Z" fill="#F93F5B"/>
<path d="M49.7523 0.351102L56.9294 5.78524C57.5165 6.23009 58.3285 6.23009 58.9155 5.78524L66.1109 0.336219C67.1924 -0.482373 68.7436 0.286612 68.7486 1.64266L68.7949 18.3337C68.7982 19.703 67.6902 20.8143 66.3209 20.8143H49.6315C48.2705 20.8143 47.1658 19.7129 47.1625 18.3519L47.1162 1.66581C47.1113 0.306454 48.6674 -0.469144 49.7523 0.351102Z" fill="#F93F5B"/>
<path d="M82.3571 0.57765C82.114 -0.149988 81.0987 -0.149988 80.8556 0.57765C80.1875 2.58527 78.9207 5.03939 76.5145 7.08008C74.9088 8.44275 73.2253 9.25473 71.7551 9.74423C71.0391 9.98237 71.0258 10.9961 71.7419 11.2359C73.7429 11.9073 76.1821 13.1724 78.2113 15.5653C79.5574 17.1529 80.3677 18.8165 80.8572 20.2735C81.1003 20.9962 82.1107 20.9962 82.3538 20.2735C82.8433 18.8149 83.6537 17.1512 84.9998 15.5653C87.0306 13.1724 89.4681 11.9073 91.4691 11.2359C92.1852 10.9961 92.1736 9.98237 91.4559 9.74423C89.9858 9.25638 88.3023 8.44275 86.6965 7.08008C84.292 5.03939 83.0269 2.58527 82.3571 0.57765Z" fill="#F93F5B"/>
</svg>
