<svg width="70" height="18" viewBox="0 0 70 18" fill="none" xmlns="http://www.w3.org/2000/svg">
    <path d="M0 16.93V1.105h7.901c4.356 0 7.902 3.566 7.902 7.924 0 4.356-3.544 7.901-7.902 7.901H0zM24.37 0l9.979 16.908H14.393L24.37 0zM35.696.497l7.901 5.982 7.9-5.982.044 16.41h-15.8L35.695.498z" fill="#F93F5B"/>
    <path d="M61.798.702a8.203 8.203 0 1 0 .001 16.406A8.203 8.203 0 0 0 61.798.702zm-.132 15.88c-1.206-4.005-3.682-6.554-7.6-7.712 3.946-1.186 6.406-3.725 7.695-7.643 1.261 3.926 3.776 6.443 7.766 7.548-5.943 2.865-5.465 3.133-7.86 7.806z" fill="#F79B5D"/>
</svg>
