<svg width="375" height="812" viewBox="0 0 375 812" fill="none" xmlns="http://www.w3.org/2000/svg">
    <path fill="#F93F5B" d="M0 0h375v812H0z"/>
    <path d="M145 455.178v-3.773h1.263c.53 0 .944.181 1.242.545.298.364.445.808.445 1.333 0 .531-.147.98-.435 1.349-.288.369-.656.551-1.101.551H145v-.005zm.47-.399h.767c.405 0 .713-.142.925-.42.212-.278.313-.646.313-1.106a1.78 1.78 0 0 0-.298-1.005c-.202-.298-.51-.444-.94-.444h-.767v2.975zM153.349 455.178h-.48l-.379-1.102h-1.399l-.338 1.102h-.399l1.227-3.773h.536l1.232 3.773zm-.96-1.455-.585-1.813-.581 1.813h1.166zM158.445 454.779v.399h-2.661v-.399l2.05-2.96h-1.954v-.384h2.505v.313l-2.071 3.031h2.131zM163.652 454.779v.399h-2.661v-.399l2.05-2.96h-1.954v-.384h2.505v.313l-2.071 3.031h2.131zM168.744 454.763v.415h-2.227v-3.773h.484v3.353h1.743v.005zM172.022 455.178h-.475v-3.773h.475v3.773zM178.007 455.178h-.46l-1.949-3.289.005.248c.005.096.01.172.01.237v2.804h-.384v-3.773h.591l1.823 3.07-.005-.262c-.005-.101-.005-.192-.005-.273v-2.535h.374v3.773zM184.002 453.278v1.955h-.288l-.131-.475c-.232.334-.576.495-1.035.495-.501 0-.884-.187-1.162-.56-.278-.374-.414-.829-.414-1.364 0-.571.146-1.046.439-1.429.293-.384.692-.571 1.192-.571.692 0 1.147.363 1.359 1.096l-.45.106c-.065-.278-.187-.485-.363-.611a.973.973 0 0 0-.581-.192c-.374 0-.647.151-.824.449-.176.298-.262.677-.262 1.132 0 .49.101.868.298 1.146a.94.94 0 0 0 .808.414.91.91 0 0 0 .667-.262c.176-.177.267-.419.267-.728 0-.055 0-.126-.005-.207h-.934v-.394h1.419zM194.453 455.178h-.46v-3.294l-1.222 3.294h-.318l-1.238-3.294v3.294h-.404v-3.773h.697l1.142 3.015 1.111-3.015h.692v3.773zM198.958 455.253c-.485 0-.864-.187-1.132-.565-.272-.379-.404-.839-.404-1.384 0-.571.142-1.046.425-1.415a1.34 1.34 0 0 1 1.126-.56c.465 0 .838.182 1.121.55.283.364.425.829.425 1.384 0 .536-.137 1-.41 1.399-.277.394-.661.591-1.151.591zm.01-.384c.328 0 .586-.151.773-.449.187-.298.277-.687.277-1.162 0-.485-.095-.863-.287-1.136a.892.892 0 0 0-.768-.404c-.323 0-.581.146-.768.439-.192.293-.283.677-.283 1.152 0 .464.096.838.288 1.131.192.288.45.429.768.429zM207.13 455.178h-.46v-3.294l-1.222 3.294h-.318l-1.238-3.294v3.294h-.399v-3.773h.697l1.137 3.015 1.111-3.015h.692v3.773zM212.772 454.763v.415h-2.44v-3.773h2.389v.414h-1.914v1.197h1.52v.384h-1.52v1.358h1.965v.005zM218.474 455.178h-.459l-1.95-3.289.005.248c.005.096.01.172.01.237v2.804h-.384v-3.773h.591l1.824 3.07-.005-.262c-.006-.101-.006-.192-.006-.273v-2.535h.374v3.773zM222.818 455.178h-.47v-3.359h-1.081v-.414h2.637v.414h-1.081v3.359h-.005zM226.272 454.183l.425-.096c.171.515.54.772 1.111.772.298 0 .525-.065.672-.192a.633.633 0 0 0 .227-.51.487.487 0 0 0-.172-.389.968.968 0 0 0-.399-.202l-.752-.187a1.998 1.998 0 0 1-.48-.181.862.862 0 0 1-.318-.329.987.987 0 0 1-.132-.505c0-.313.122-.565.359-.752.237-.187.54-.283.914-.283.687 0 1.137.308 1.349.929l-.43.126a.755.755 0 0 0-.348-.5 1.115 1.115 0 0 0-.586-.171.982.982 0 0 0-.551.161.53.53 0 0 0-.242.465c0 .278.202.47.611.566l.707.166c.647.157.965.5.965 1.041 0 .328-.121.596-.364.813-.242.217-.581.323-1.025.323-.778.005-1.293-.348-1.541-1.065zM145.136 398.826v-39.093h19.522c10.763 0 19.521 8.813 19.521 19.576 0 10.764-8.758 19.522-19.521 19.522h-19.522v-.005zM205.347 357 230 398.77h-49.306L205.347 357zM145.096 405.735l19.522 14.779 19.521-14.779.111 40.543h-39.038l-.116-40.543z" fill="#fff"/>
    <path d="M209.59 406.24c-11.193 0-20.264 9.072-20.264 20.264 0 11.193 9.071 20.264 20.264 20.264 11.192 0 20.263-9.071 20.263-20.264 0-11.192-9.076-20.264-20.263-20.264zm-.324 39.23c-2.98-9.895-9.101-16.193-18.774-19.057 9.748-2.934 15.83-9.202 19.012-18.885 3.111 9.698 9.328 15.915 19.188 18.648-14.693 7.086-13.511 7.753-19.426 19.294z" fill="#F79B5D"/>
</svg>
