<svg width="375" height="812" viewBox="0 0 375 812" fill="none" xmlns="http://www.w3.org/2000/svg">
<rect width="375" height="812" fill="white"/>
<rect width="375" height="812" fill="#F93F5B"/>
<path d="M189.382 362.732C188.613 360.423 185.387 360.423 184.618 362.732C182.494 369.106 178.478 376.899 170.838 383.38C165.738 387.706 160.393 390.288 155.726 391.838C153.45 392.593 153.413 395.813 155.686 396.576C162.04 398.709 169.78 402.725 176.225 410.325C180.5 415.367 183.071 420.649 184.625 425.279C185.396 427.574 188.604 427.574 189.375 425.279C190.929 420.649 193.5 415.367 197.775 410.325C204.22 402.724 211.96 398.708 218.314 396.576C220.587 395.813 220.55 392.593 218.274 391.838C213.607 390.288 208.262 387.706 203.162 383.38C195.524 376.9 191.506 369.107 189.382 362.732Z" fill="white"/>
</svg>
